<mxfile host="65bd71144e">
    <diagram id="efft3wcDEvXphTnKbKsZ" name="Page-1">
        <mxGraphModel dx="504" dy="1393" grid="1" gridSize="10" guides="1" tooltips="1" connect="1" arrows="1" fold="1" page="1" pageScale="1" pageWidth="827" pageHeight="1169" math="0" shadow="0">
            <root>
                <mxCell id="0"/>
                <mxCell id="1" parent="0"/>
                <mxCell id="2" value="Seminar / Acara" style="verticalLabelPosition=bottom;verticalAlign=top;html=1;shadow=0;dashed=0;strokeWidth=1;shape=mxgraph.android.phone2;strokeColor=#000000;" parent="1" vertex="1">
                    <mxGeometry x="325" y="-340" width="200" height="390" as="geometry"/>
                </mxCell>
                <mxCell id="3" value="" style="rounded=0;whiteSpace=wrap;html=1;" parent="1" vertex="1">
                    <mxGeometry x="333" y="-26" width="185" height="42" as="geometry"/>
                </mxCell>
                <mxCell id="5" value="Lomba" style="shape=image;imageAspect=0;aspect=fixed;verticalLabelPosition=bottom;verticalAlign=top;strokeColor=#000000;image=data:image/png,iVBORw0KGgoAAAANSUhEUgAAAGAAAABgCAYAAADimHc4AAAF/0lEQVR4Xu2c/VEbSRDFJQjAdgQnR3A4AstAAM7AIoIzERhHYBGBRQRHAIDlCMxFYC4CmwCAe+9qt2q91s50z2zvaKFVpeKP7Znpeb+enq8V04l/iiowLdq6Nz5xAIWDwAE4gMIKFG7eR4ADKKxA4eZ9BDiAwgoUbt5HgAMorEDh5n0EPDUABwcHD4X7HGz+8vJy0KActDH23AH8yt8BtMaDj4DC+ckBOABbBXwO8DnAV0G2Yyyv9tHNAfP5fG9nZ+cduv12Op3O8ro/mVgL0EcKfHh4uEE/z+/v78/W6/V1Tp+zlqH7+/ufIPr7HAfaZccAoOkzYCyvrq6OUzVIBoBI+oZG91Ib7io3NgBVP9bw+02KFkkAEPlLRP5fKQ3GyowUwAQj4RQjQZ0N1ACY83d3dxn9Jp+xAqAYd3d3LzEncH4Qf9QALKOfXo8ZQMooSAHwvY/VziObA+ruXCOAXonDH4ZqAH0s40IOjnkEpIzg3gHEBIwBjJXXRNcm29z2c8u3fXIALUViAeAAModAroC55X0ERK5EfQQY38nmRnBu+ewRgH3ADZahf3RlAmxGXmAz8rPred8d0GaknPaxCZ1hE/q9q03sA/7Fbnim8Uk9CQPAGgBedzWCZ28uLi7WjxEA4L1Fv/4OAPgKAPOiAGK7wZwI1HTMIgBipwDo+yAA3iPKPwWi4AZR8NJCgC0AEDwFAIBj9H2p8VOdgiSHcXDkCI6sLDZCms712T6if4HA+xxqH/PfK+0FjRoAHYhNxADwE7dFPBn8bTIeYwpC0D3HrR+j/3mfEzDrSgVwAmc+RKJx4yXFGAHA5y/oa3ByRdB9xKg/0Y7QJACMCCzHbtDYs1CDcGoFp46aNmMDgNH+GcG2iAh7i/QzCy2/u8onAajSkGQU0HQN547qi4qxAKjW/Mz5wchnB1OjPzkFsaB0FFQOci5YYl44xcj5EYqm2FGAdoi37WMBwI0k8j2vW7na68z5jXqToz8LAAsfHh7OQZ/5UfTh5BzrVGkAEh+bnY1tPGPCJKegumLkSGkqivny//PSAEROVkY5qaduJxsAK8KwXuEPX87K/qRcbEsblexhpHXB7gzBslDYbzTtBUCfEHKHdEgQbcoM1NWL+Ky/NwCsLHZWIomW2FmSpI4um230r1cA7DijDKudVejIOiKi+s0CKRQASH6jg0fNWB0tQie9Uj+adr0DYOXV1p2Tc9Lbc6GzpJROVqMzepbTVTdHJYLqJGWjFfPXBEDdaAWCExXX1J2XOG0n+fYxOsyDrc6LnVjHms8rP75p3mdixKMO7l1WffmxyWdTAC0R+Bo7X+bldw4x/gyJuOkYQyN601ZynID2/kGZNb7XEP1ae6qZ6ttgAFowgld7tW0fECTisz3L5W8IThEAdEi6dyAEROSxNg1UaYe/X2AKjH16W1bGGmo/LwagOuzir0uCJ6p0mHMChDzBxudM0kHAfYcyXATMBPY8y9nTvtUsqFdkUgwAvUN6CF5vtntQ/zQIf8/xva3zNHe4EPsZvrw0V/1UKuUaUaSs0KgoAE0qEvZHa1Ys9dSOFgdQ5Wq+6hJcFWmVjdlz1YO5Za6dW2L1ap8XB0CHh4awLeKz71sBoI4a6cpIG2Ut++Jpp+nPVgGo5gROpCt8o6sjJYhb2C+wkjpXljM13zoAjZTEFVLszQuROLw4Qb5fls73m5zdSgC1o9XcwJ9+8iBNfJbE8kOd5YgiIGC01QCaflf/EoFnSJ2vRVbCHyPaEex5/0IgV1hp+dEAaEzUwf85Z32nLBVWaucApEoZ2TkAI2Gl1ToAqVJGdg7ASFhptQ5AqpSRnQMwElZarQOQKmVk5wCMhJVW6wCkShnZOQAjYaXVOgCpUkZ2gwOI/ULFqJ/iaoc+S3IALTQOQByrNoYOwEZXca0OQCyVjaEDsNFVXKsDEEtlY+gAbHQV1/roAYiVeCKGg+8Dnoiu4m46ALFUNoYOwEZXca0OQCyVjaEDsNFVXKsDEEtlY+gAbHQV1+oAxFLZGDoAG13FtToAsVQ2hg7ARldxrf8BCGFHjm6cwn8AAAAASUVORK5CYII=;fontSize=8;spacingTop=-8;" parent="1" vertex="1">
                    <mxGeometry x="350" y="-18" width="20" height="20" as="geometry"/>
                </mxCell>
                <mxCell id="21" value="Seminar" style="shape=image;imageAspect=0;aspect=fixed;verticalLabelPosition=bottom;verticalAlign=top;strokeColor=#000000;image=data:image/png,iVBORw0KGgoAAAANSUhEUgAAAGAAAABgCAYAAADimHc4AAAEj0lEQVR4Xu2cjVEbMRCFMTRAByEVBCqIAw3QQaCChEpCKgA6oAEYU0GcCkIJNGA7TxnfDOPY3l1pdXs/72Y8A9ytVnrfriRLOiYHvEIVmIR6p/MDAggOAgIggGAFgt0zAwggWIFg98wAAghWINg9M4AAghUIds8MIIBgBYLdMwMIIFiBYPfMgL4BmE6np4eHh19R78vJZHISXH8X96vV6hUFPS6Xy4fZbDZ3KVRZiCkDzs/Pf0D078qye/kYYNw+Pz/ftFV5NYCLi4tfqNRpWxUL9jN7enr60kYdVAAQ+beI/G9tVKgrPpAJP5EJ1bNdBJD6/KOjoxT9o7sWi8VHjAlpfKh2iQDGGP2N2m1kgQbAn6HMdjLCeI6x4CzDTm0iAsDgu1KXNsAHAUDUqKTZYuESgNoVLGmcxja6fQQgZHjtACOAigAwgbnCVPZ+XyYSQCUASXxMXu6kDCKACgAa8VPkE4AwEnsPwu/FJwDFNMgTwKb4BNAigG3i9xLAtv2Gmuv1HhmwS/zeAdDsN3iv15cC2Cd+rwAY9xvc1utLAEji9wZAzoqr10plLgCN+L0AULLf4LFenwNAK34vAOREv+d6vRWARfy+ACjZbyher7cAsIrfCwCSANJUXvqqL9lL/pvyc8QnAEl93NcAyBW/FwDQuFesGn5QaPXfI5gJ/cZyb9FRGQkAfFynVc2c+vUFQPaRF4+pqAQgV/jGTuoiw5ejuz4NHTyA1MCcqahH9Cffo8+AJsIAYY6+9pMm4jz6/sYPAbxTXJMJXpFPADtCfb0cfYXb0yYjUsTj9xmOj996HxVkBmj6nIrPEEBFcTVFE4BGpYrPEEBFcTVFjx4ABt1jDLaf8TlNH4h2jEH3ZPNEdtoXxt9ecf8NP8/XnxcMym8aoXc9M1oAaPi/F/3WnxINH2H8iK/8DzmFjA4AGnyJ6E0v+53kCLbLZp0hNwCRgKgvCcBgFuNSV4PXW5PwaY5f7YJg9/i+cKPtmiQAaTFtEMvRxlMPpYDUO2UaAKkyuRA6sRqKyt/VjvxNYikTsFdwLZHUAsiFEA6gZLlZEk+6j1MTZ9Kb7xYAORDCAaCB96h4mvFEXA8QYO+YYwVghdAFAGFv2KMbekE3NN1HPgeABUIXAIS+ZSkJkAtAC0HyX31LUmpg7X5JEkCqn2QvzY4kewJweEVpMMfTa2fDtvJLM6ApczAvaLQNwQvArjEhvAtqW1CrP08A2yAQgEDEG8AmBAIIAPAeAgEEAWgg8F8VBALQjEfVvwdoKhH5TI0xwNKeYgAWZ318VurDS9skAig5v19auWh7zzOou9qiAZB9fj9awFL/3udQt9VHBBC5oVIqYKm9x2uwUh1EAOvp1OiyoI3oT9qqAKwhqM/vS9S7fr+Nvr/RQA1gLJnQVuRnAUhG287vdz2ipfrVfP9A8m3KAKkw3rcrQAB2zVwtCMBVTnthBGDXzNWCAFzltBdGAHbNXC0IwFVOe2EEYNfM1YIAXOW0F0YAds1cLQjAVU57YQRg18zVggBc5bQXRgB2zVwtCMBVTnthBGDXzNXiL+sNXY5GXp4mAAAAAElFTkSuQmCC;fontSize=8;spacingTop=-8;" parent="1" vertex="1">
                    <mxGeometry x="395" y="-18.5" width="20" height="20" as="geometry"/>
                </mxCell>
                <mxCell id="22" value="Kuliah" style="shape=image;imageAspect=0;aspect=fixed;verticalLabelPosition=bottom;verticalAlign=top;strokeColor=#000000;image=data:image/png,iVBORw0KGgoAAAANSUhEUgAAAGAAAABgCAYAAADimHc4AAAEO0lEQVR4Xu2d63UaMRBGeTTgVBC7gjgdgGnAriCkAjuVmFQQ3EEKALypIE4FoQRSAJBPOd4cZQPsjKRBjx1+2eeI0epezUjsA/o9fUUl0I/au3beUwGRJ4EKUAGRCRC7H41GF4PB4L7f79/iLdfW217w93y73T5VVbUhhvvbTDOAQOzm5maKZo+Af3Gs+X6/X+92uztIMELILxXQgsrAB/gvVKIQ8XG1Ws2p7VXACVJc+HUojgQVcESAK3yuBBVwQIAvfBMSWbDBmjBuWxNUQENACPhWFrRKUAGWgJDwqRK8BWB/fI398Qd0eIvdwiV19T9Du1/Ym4/aSkB9HBLwGxLe41jWzXF7CcBBm73xwxlgcrtIBr514NVyuRwHEzCZTL4jmP2JkAtJqn2K8Oux3kHCV3vgThmAmT/DzL+XIugRN2X4ZlhPEDD1EmBq/nA4NLM/tVfq8M3WdI1PyVdeAhKd/cnDr6EjA/6pOuwSBAE/dbfjnvzeArD47t27D/7ObGa+GTlK0DeUoJFXCWoT0DQcHLljQMl9PvWQIOATBMw6JyAF+IBusvWyedGGvQbklgGJwO9h3RwvFovK+4NYTgI48FEefgCSuZplTqsEfZ26PlBsBnDh49SxOW+0wQSbh5TQdnGmSAGu8OtpH0pCG3zTX3ECfOHXEjhxDtUrCvziBHCgmZpfl51jBZ8Tz45BhV+UAA4sCnwrEx6wOD9SV2UO/GIESME3N2PhxOMzQJFOu3PhFyEgZ/jZC8gdftYCSoCfrYBS4GcpoCT42QkoDX5WAkqEn42AUuFnIaBk+MkLKB1+0gJyhG+OmfN0TLICcoVvHmXi3pSQ3PWAnOGbGZ29gLZrzvVpYc4pZcmzms0J0wkBqcLvRAakDL8TAnBz0xvKE+nnLDv21bLiSxBlgLHgdyID2gRIwjeA2zYJbcfXvLac3DbUZ4DS8FXAiX32OeCrgCMCzgVfBVBvzjnRzuXWETucT4k8dFjZrQE+DnzhawZ40A8BXwU4CggFXwU4CAgJXwUwBYSGrwIYAiTgqwCiACn4nRBAZBytWfGfA6KRJXasAoigpJqpACmyxLgqgAhKqpkKkCJLjKsCiKCkmqkAKbLEuCqACEqqmQqQIkuMqwKIoKSaqQApssS4KoAISqqZCpAiS4yrAoigpJqpACmyxLjJCyCOo9hm4veG4omQNZ6FelssQY+BmWcX8JAe6buF6m7YN2Yl+uXdHtjCvRUCPkMA6wct2AIS/vr6cCQdI+HhkatDP1NyKhxbgAmmWfA/UpfZb6I4CXiV8IK14J3jZCnqbS6133kNsMlpJvz5Snp23bcZOmdAHeT1Z6ym+H/UlYwwMx7jrfC9ozNuzW+mvreAompJhMGogAjQg5agyMefffeaAZEVqgAVEJlA5O41A1RAZAKRu9cMUAGRCUTuXjNABUQmELn73yrc5Z3k6dfYAAAAAElFTkSuQmCC;fontSize=7;spacingTop=-8;" parent="1" vertex="1">
                    <mxGeometry x="441" y="-17.5" width="20" height="20" as="geometry"/>
                </mxCell>
                <mxCell id="23" value="Acara" style="shape=image;imageAspect=0;aspect=fixed;verticalLabelPosition=bottom;verticalAlign=top;strokeColor=#000000;image=data:image/png,iVBORw0KGgoAAAANSUhEUgAAAGAAAABgCAYAAADimHc4AAAGi0lEQVR4Xu1d7XEbNxAVJRWgDqJUYLoCk5L+W64gcgWRKzBVgakKTFVg6r8+mArMVGClgsj/9ZH3NDgPdbzDx2FxADN7MzcZmcACeG93sQAWl8GWPlkRGGRtXRvfUgIyK4ESoARkRiBz82oBSkBmBDI3rxagBGRGIHPzagFKQGYEMjevFlA6AaPRaLi9vf0H+nk8GAz2M/d3I5p/fn6+Q0fnT09PF4vFYmnrtNUCDg4OvgD0040YdaGdBBnTm5ubT23dayXg8PDwOyoNCx3XpnVrcX19PW7qdCMB0PwpNP/PTRtlyf2FJZzDEta8yRoB9Pk7OzvUfn2EEXh8fPwdcwLnh1/PGgGq/cKor4hrsoImAn5otJOMhCXmgrdWC8Dk+5yseRW8BQJeKf2aBbgIqAtQTF8jEIqfEiCsQUqAMKCh4pSAUMSEy28MAVhv7CHaeoe32mPaW1l5c//knnsqeOd4/0L8fC+MVRJxxRMA4PexufcZwJ+EIAASZtjcOqsvZEJk9FG2aAKwyCPwkxggQMQES/qzGBkp6xZJAN0NtjduV1xMLAZLLOvHJbql4ggw5wnfpFfXnB/gkj649ttjmQ6tXxQB1Hz4++/S4FegGBLelmQJRRHQ05nC2v5KqNZKli+GAEy4E2j+Z8nBtcmCJZxhYo6a3KX6WQQBDDUx6f7wGRTA+xvlGGLOqxDThKrH+PcTkPjGJQcy7lGfrujOVTb170UQgE7MMFAe5FsfAPcJmju1FYIlnYKELy5Z+P0CG4UnHuWSFslOgAk5/3WNEmEkNdaaMVDJODo6GoEshrHWp4Sd2uwEoAN0Hd9sSPlofr2+pyV8AAlzF1Epfy+BAKv7oc+H2+mUbQES7uCOfrMAmN0NZScAIC24ydYGUhftr2S5rICbdiB3lFLDXbJLIMB6ptyUGeAaVPW7R8ZG9jVBdgJCO+ALflUutfzQ/tTLh/ZP/EgytAOhA04tP7Q/xRHgmihTuqCYCT4W+K4WKm4BOgnb03qSp6V4rII7T5Qg15U0pmGoLsQyW0CKrQiP8PPFBetWhJmJPNxQNWedArRz2wQIWUyTt27YmfrZ3Q/7ERqliU/C7ETIdjSKc0NuhuiIqScvm3NG498hquFO6L5HhPIT9Ye6Hb2ClB7INKtN8ihotVmQsPQ5UPHQ8NYiJcT+q50rwgVVHTKH8iTBtoPZGX+A/w9Owuh6ismaK4qAyp8jM2IuTYIB/9j3UKczy4EVowkIbM+ruLEEblM7z3d9BNLtQPNHJWl+1e8iCag6JzAx/zT3bic+ROUoUzQBKyEqAXQe2tcAvECoOSkh1LQRWzwBtYiB58fH0GrG+kxXf3FRJlXlHn/f4c957nPeEEvaKAJCBrYpZZWAzEwpAUpAZgQyN1+sBZg7YW+wKBty0sUEW88NGtWwW6z+jTpcUfNOwJKTdIlrAPa3GALG4/F7goyXaYX8Ly/hiT1MyIVMkrEgObe3t5diwiMEZSPAHMS8Z1hp3ohhdK7KtMQ51guXuSykVwIM6FxQneDtlG7YGWp3xeqcgZ8N622zrhcCqqum1HRp1+LGNawEXRWtoq8rrkkJMGnivPVSnzDDUMlXmruy51dXV68meMnuJCGAwEODvnoeD0qOJ4ksXu5DNPYxBRHiBPyfv5xodlZbv2jYhX1RAgA+tZ4TrMjDQxQTOjKm5/trcqxrI62uahT19kwoyzUEQ1qxEzbImyGl/aPIACFEjACBvftqV3MGc18+PDwspaIRRl+7u7tDHkcyAos96AEJYrcsRQjwvZPVojWXGBCjDuDdz61FE5WNQATXIFyLBD8hd9ZswkUIgBBeiPOOdOhaUH4K0GdSWh6MoKlgjj/pNplTFOKqWj+uGtKXaAJ80wDZKV4JwiCnpR6YME/VJHe1XplaBVfCCqIJ8PluKIGHtp+WlpHQpqnmgyH8GrCVCIyr8eu2vVqAR35/51uOIQNJUdaVKEbFir3kF20BLgHQonGKBUwKwOsyfYKL2AxrF369pib2AWpoG6EApZafJDs6tNN9ls9JQFMeqxJQYz+lC2qa5JWAHgnw+ny9y0T7dBc52kplAW0hbrAF5AClzzZTENDk+6sxKQGJXZBrcacEJCDA5LYusFswdW1IKgHCBIS6SyVACQjVmbTlYyfh0N6pBZRmAaEMavk4BPT/phqHX3RtJSAawjgBSkAcftG1lYBoCOMEKAFx+EXXVgKiIYwToATE4Rdd+z8gf7GdSFZnVwAAAABJRU5ErkJggg==;fontSize=7;spacingTop=-8;" parent="1" vertex="1">
                    <mxGeometry x="483" y="-17" width="20" height="20" as="geometry"/>
                </mxCell>
                <mxCell id="33" value="&lt;font style=&quot;font-size: 7px;&quot;&gt;Hari ini&lt;/font&gt;" style="html=1;shadow=0;dashed=0;shape=mxgraph.bootstrap.checkbox2;labelPosition=right;verticalLabelPosition=middle;align=left;verticalAlign=middle;gradientColor=#DEDEDE;fillColor=#EDEDED;checked=0;spacing=5;checkedFill=#0085FC;checkedStroke=#ffffff;fontSize=10;spacingTop=-3;" vertex="1" parent="1">
                    <mxGeometry x="345" y="-270" width="10" height="10" as="geometry"/>
                </mxCell>
                <mxCell id="37" value="&lt;font style=&quot;font-size: 7px;&quot;&gt;Masukan kata&lt;/font&gt;" style="html=1;shadow=0;dashed=0;shape=mxgraph.bootstrap.rrect;rSize=5;strokeColor=#999999;fillColor=#ffffff;fontColor=#777777;whiteSpace=wrap;align=left;verticalAlign=middle;fontStyle=0;fontSize=7;spacing=15;spacingTop=0;" vertex="1" parent="1">
                    <mxGeometry x="405" y="-299" width="73.33" height="20" as="geometry"/>
                </mxCell>
                <mxCell id="38" value="Cari" style="html=1;shadow=0;dashed=0;shape=mxgraph.bootstrap.rrect;rSize=5;strokeColor=none;fillColor=#0085FC;fontColor=#ffffff;whiteSpace=wrap;align=center;verticalAlign=middle;fontStyle=0;fontSize=9;spacing=14;" vertex="1" parent="1">
                    <mxGeometry x="483" y="-299" width="30" height="20" as="geometry"/>
                </mxCell>
                <mxCell id="40" value="&lt;font style=&quot;font-size: 7px;&quot;&gt;Besok&lt;/font&gt;" style="html=1;shadow=0;dashed=0;shape=mxgraph.bootstrap.checkbox2;labelPosition=right;verticalLabelPosition=middle;align=left;verticalAlign=middle;gradientColor=#DEDEDE;fillColor=#EDEDED;checked=0;spacing=5;checkedFill=#0085FC;checkedStroke=#ffffff;fontSize=10;spacingTop=-3;" vertex="1" parent="1">
                    <mxGeometry x="395" y="-270" width="10" height="10" as="geometry"/>
                </mxCell>
                <mxCell id="50" value="" style="rounded=1;whiteSpace=wrap;html=1;fontSize=10;arcSize=6;" vertex="1" parent="1">
                    <mxGeometry x="338" y="-250" width="175" height="80" as="geometry"/>
                </mxCell>
                <mxCell id="51" value="Foto" style="rounded=1;whiteSpace=wrap;html=1;fontSize=10;arcSize=6;" vertex="1" parent="1">
                    <mxGeometry x="338" y="-250" width="67" height="80" as="geometry"/>
                </mxCell>
                <mxCell id="52" value="Judul judul" style="text;html=1;strokeColor=none;fillColor=none;align=center;verticalAlign=middle;whiteSpace=wrap;rounded=0;fontSize=10;fontStyle=1" vertex="1" parent="1">
                    <mxGeometry x="408" y="-254" width="60" height="30" as="geometry"/>
                </mxCell>
                <mxCell id="54" value="wkwkwkwkwkwkwkwkw&lt;br style=&quot;font-size: 8px;&quot;&gt;kwwkwkwkwkwkwkwkw&lt;br style=&quot;font-size: 8px;&quot;&gt;wwkkwkwkwkwkw" style="text;html=1;strokeColor=none;fillColor=none;align=left;verticalAlign=middle;whiteSpace=wrap;rounded=0;fontSize=8;" vertex="1" parent="1">
                    <mxGeometry x="408.33" y="-229" width="60" height="30" as="geometry"/>
                </mxCell>
                <mxCell id="57" value="Logo" style="text;html=1;strokeColor=none;fillColor=none;align=center;verticalAlign=middle;whiteSpace=wrap;rounded=0;fontSize=13;" vertex="1" parent="1">
                    <mxGeometry x="330" y="-304" width="60" height="30" as="geometry"/>
                </mxCell>
                <mxCell id="60" value="" style="rounded=1;whiteSpace=wrap;html=1;fontSize=10;arcSize=6;" vertex="1" parent="1">
                    <mxGeometry x="410.33" y="-196" width="88" height="20" as="geometry"/>
                </mxCell>
                <mxCell id="61" value="19:30 - Selesai&lt;br&gt;Senin, 06 Mei 2024" style="text;html=1;strokeColor=none;fillColor=none;align=left;verticalAlign=middle;whiteSpace=wrap;rounded=0;fontSize=6;" vertex="1" parent="1">
                    <mxGeometry x="437" y="-193.5" width="75" height="14" as="geometry"/>
                </mxCell>
                <mxCell id="62" value="" style="shape=image;imageAspect=0;aspect=fixed;verticalLabelPosition=bottom;verticalAlign=top;strokeColor=#000000;image=data:image/png,iVBORw0KGgoAAAANSUhEUgAAAGAAAABgCAYAAADimHc4AAAEj0lEQVR4Xu2cjVEbMRCFMTRAByEVBCqIAw3QQaCChEpCKgA6oAEYU0GcCkIJNGA7TxnfDOPY3l1pdXs/72Y8A9ytVnrfriRLOiYHvEIVmIR6p/MDAggOAgIggGAFgt0zAwggWIFg98wAAghWINg9M4AAghUIds8MIIBgBYLdMwMIIFiBYPfMgL4BmE6np4eHh19R78vJZHISXH8X96vV6hUFPS6Xy4fZbDZ3KVRZiCkDzs/Pf0D078qye/kYYNw+Pz/ftFV5NYCLi4tfqNRpWxUL9jN7enr60kYdVAAQ+beI/G9tVKgrPpAJP5EJ1bNdBJD6/KOjoxT9o7sWi8VHjAlpfKh2iQDGGP2N2m1kgQbAn6HMdjLCeI6x4CzDTm0iAsDgu1KXNsAHAUDUqKTZYuESgNoVLGmcxja6fQQgZHjtACOAigAwgbnCVPZ+XyYSQCUASXxMXu6kDCKACgAa8VPkE4AwEnsPwu/FJwDFNMgTwKb4BNAigG3i9xLAtv2Gmuv1HhmwS/zeAdDsN3iv15cC2Cd+rwAY9xvc1utLAEji9wZAzoqr10plLgCN+L0AULLf4LFenwNAK34vAOREv+d6vRWARfy+ACjZbyher7cAsIrfCwCSANJUXvqqL9lL/pvyc8QnAEl93NcAyBW/FwDQuFesGn5QaPXfI5gJ/cZyb9FRGQkAfFynVc2c+vUFQPaRF4+pqAQgV/jGTuoiw5ejuz4NHTyA1MCcqahH9Cffo8+AJsIAYY6+9pMm4jz6/sYPAbxTXJMJXpFPADtCfb0cfYXb0yYjUsTj9xmOj996HxVkBmj6nIrPEEBFcTVFE4BGpYrPEEBFcTVFjx4ABt1jDLaf8TlNH4h2jEH3ZPNEdtoXxt9ecf8NP8/XnxcMym8aoXc9M1oAaPi/F/3WnxINH2H8iK/8DzmFjA4AGnyJ6E0v+53kCLbLZp0hNwCRgKgvCcBgFuNSV4PXW5PwaY5f7YJg9/i+cKPtmiQAaTFtEMvRxlMPpYDUO2UaAKkyuRA6sRqKyt/VjvxNYikTsFdwLZHUAsiFEA6gZLlZEk+6j1MTZ9Kb7xYAORDCAaCB96h4mvFEXA8QYO+YYwVghdAFAGFv2KMbekE3NN1HPgeABUIXAIS+ZSkJkAtAC0HyX31LUmpg7X5JEkCqn2QvzY4kewJweEVpMMfTa2fDtvJLM6ApczAvaLQNwQvArjEhvAtqW1CrP08A2yAQgEDEG8AmBAIIAPAeAgEEAWgg8F8VBALQjEfVvwdoKhH5TI0xwNKeYgAWZ318VurDS9skAig5v19auWh7zzOou9qiAZB9fj9awFL/3udQt9VHBBC5oVIqYKm9x2uwUh1EAOvp1OiyoI3oT9qqAKwhqM/vS9S7fr+Nvr/RQA1gLJnQVuRnAUhG287vdz2ipfrVfP9A8m3KAKkw3rcrQAB2zVwtCMBVTnthBGDXzNWCAFzltBdGAHbNXC0IwFVOe2EEYNfM1YIAXOW0F0YAds1cLQjAVU57YQRg18zVggBc5bQXRgB2zVwtCMBVTnthBGDXzNXiL+sNXY5GXp4mAAAAAElFTkSuQmCC;fontSize=8;spacingTop=-8;" vertex="1" parent="1">
                    <mxGeometry x="413.33000000000004" y="-195" width="19" height="19" as="geometry"/>
                </mxCell>
                <mxCell id="71" value="Lomba" style="verticalLabelPosition=bottom;verticalAlign=top;html=1;shadow=0;dashed=0;strokeWidth=1;shape=mxgraph.android.phone2;strokeColor=#000000;" vertex="1" parent="1">
                    <mxGeometry x="320" y="78" width="200" height="390" as="geometry"/>
                </mxCell>
                <mxCell id="72" value="" style="rounded=0;whiteSpace=wrap;html=1;" vertex="1" parent="1">
                    <mxGeometry x="328" y="392" width="185" height="42" as="geometry"/>
                </mxCell>
                <mxCell id="73" value="Lomba" style="shape=image;imageAspect=0;aspect=fixed;verticalLabelPosition=bottom;verticalAlign=top;strokeColor=#000000;image=data:image/png,iVBORw0KGgoAAAANSUhEUgAAAGAAAABgCAYAAADimHc4AAAF/0lEQVR4Xu2c/VEbSRDFJQjAdgQnR3A4AstAAM7AIoIzERhHYBGBRQRHAIDlCMxFYC4CmwCAe+9qt2q91s50z2zvaKFVpeKP7Znpeb+enq8V04l/iiowLdq6Nz5xAIWDwAE4gMIKFG7eR4ADKKxA4eZ9BDiAwgoUbt5HgAMorEDh5n0EPDUABwcHD4X7HGz+8vJy0KActDH23AH8yt8BtMaDj4DC+ckBOABbBXwO8DnAV0G2Yyyv9tHNAfP5fG9nZ+cduv12Op3O8ro/mVgL0EcKfHh4uEE/z+/v78/W6/V1Tp+zlqH7+/ufIPr7HAfaZccAoOkzYCyvrq6OUzVIBoBI+oZG91Ib7io3NgBVP9bw+02KFkkAEPlLRP5fKQ3GyowUwAQj4RQjQZ0N1ACY83d3dxn9Jp+xAqAYd3d3LzEncH4Qf9QALKOfXo8ZQMooSAHwvY/VziObA+ruXCOAXonDH4ZqAH0s40IOjnkEpIzg3gHEBIwBjJXXRNcm29z2c8u3fXIALUViAeAAModAroC55X0ERK5EfQQY38nmRnBu+ewRgH3ADZahf3RlAmxGXmAz8rPred8d0GaknPaxCZ1hE/q9q03sA/7Fbnim8Uk9CQPAGgBedzWCZ28uLi7WjxEA4L1Fv/4OAPgKAPOiAGK7wZwI1HTMIgBipwDo+yAA3iPKPwWi4AZR8NJCgC0AEDwFAIBj9H2p8VOdgiSHcXDkCI6sLDZCms712T6if4HA+xxqH/PfK+0FjRoAHYhNxADwE7dFPBn8bTIeYwpC0D3HrR+j/3mfEzDrSgVwAmc+RKJx4yXFGAHA5y/oa3ByRdB9xKg/0Y7QJACMCCzHbtDYs1CDcGoFp46aNmMDgNH+GcG2iAh7i/QzCy2/u8onAajSkGQU0HQN547qi4qxAKjW/Mz5wchnB1OjPzkFsaB0FFQOci5YYl44xcj5EYqm2FGAdoi37WMBwI0k8j2vW7na68z5jXqToz8LAAsfHh7OQZ/5UfTh5BzrVGkAEh+bnY1tPGPCJKegumLkSGkqivny//PSAEROVkY5qaduJxsAK8KwXuEPX87K/qRcbEsblexhpHXB7gzBslDYbzTtBUCfEHKHdEgQbcoM1NWL+Ky/NwCsLHZWIomW2FmSpI4um230r1cA7DijDKudVejIOiKi+s0CKRQASH6jg0fNWB0tQie9Uj+adr0DYOXV1p2Tc9Lbc6GzpJROVqMzepbTVTdHJYLqJGWjFfPXBEDdaAWCExXX1J2XOG0n+fYxOsyDrc6LnVjHms8rP75p3mdixKMO7l1WffmxyWdTAC0R+Bo7X+bldw4x/gyJuOkYQyN601ZynID2/kGZNb7XEP1ae6qZ6ttgAFowgld7tW0fECTisz3L5W8IThEAdEi6dyAEROSxNg1UaYe/X2AKjH16W1bGGmo/LwagOuzir0uCJ6p0mHMChDzBxudM0kHAfYcyXATMBPY8y9nTvtUsqFdkUgwAvUN6CF5vtntQ/zQIf8/xva3zNHe4EPsZvrw0V/1UKuUaUaSs0KgoAE0qEvZHa1Ys9dSOFgdQ5Wq+6hJcFWmVjdlz1YO5Za6dW2L1ap8XB0CHh4awLeKz71sBoI4a6cpIG2Ut++Jpp+nPVgGo5gROpCt8o6sjJYhb2C+wkjpXljM13zoAjZTEFVLszQuROLw4Qb5fls73m5zdSgC1o9XcwJ9+8iBNfJbE8kOd5YgiIGC01QCaflf/EoFnSJ2vRVbCHyPaEex5/0IgV1hp+dEAaEzUwf85Z32nLBVWaucApEoZ2TkAI2Gl1ToAqVJGdg7ASFhptQ5AqpSRnQMwElZarQOQKmVk5wCMhJVW6wCkShnZOQAjYaXVOgCpUkZ2gwOI/ULFqJ/iaoc+S3IALTQOQByrNoYOwEZXca0OQCyVjaEDsNFVXKsDEEtlY+gAbHQV1/roAYiVeCKGg+8Dnoiu4m46ALFUNoYOwEZXca0OQCyVjaEDsNFVXKsDEEtlY+gAbHQV1+oAxFLZGDoAG13FtToAsVQ2hg7ARldxrf8BCGFHjm6cwn8AAAAASUVORK5CYII=;fontSize=8;spacingTop=-8;" vertex="1" parent="1">
                    <mxGeometry x="345" y="400" width="20" height="20" as="geometry"/>
                </mxCell>
                <mxCell id="74" value="Seminar" style="shape=image;imageAspect=0;aspect=fixed;verticalLabelPosition=bottom;verticalAlign=top;strokeColor=#000000;image=data:image/png,iVBORw0KGgoAAAANSUhEUgAAAGAAAABgCAYAAADimHc4AAAEj0lEQVR4Xu2cjVEbMRCFMTRAByEVBCqIAw3QQaCChEpCKgA6oAEYU0GcCkIJNGA7TxnfDOPY3l1pdXs/72Y8A9ytVnrfriRLOiYHvEIVmIR6p/MDAggOAgIggGAFgt0zAwggWIFg98wAAghWINg9M4AAghUIds8MIIBgBYLdMwMIIFiBYPfMgL4BmE6np4eHh19R78vJZHISXH8X96vV6hUFPS6Xy4fZbDZ3KVRZiCkDzs/Pf0D078qye/kYYNw+Pz/ftFV5NYCLi4tfqNRpWxUL9jN7enr60kYdVAAQ+beI/G9tVKgrPpAJP5EJ1bNdBJD6/KOjoxT9o7sWi8VHjAlpfKh2iQDGGP2N2m1kgQbAn6HMdjLCeI6x4CzDTm0iAsDgu1KXNsAHAUDUqKTZYuESgNoVLGmcxja6fQQgZHjtACOAigAwgbnCVPZ+XyYSQCUASXxMXu6kDCKACgAa8VPkE4AwEnsPwu/FJwDFNMgTwKb4BNAigG3i9xLAtv2Gmuv1HhmwS/zeAdDsN3iv15cC2Cd+rwAY9xvc1utLAEji9wZAzoqr10plLgCN+L0AULLf4LFenwNAK34vAOREv+d6vRWARfy+ACjZbyher7cAsIrfCwCSANJUXvqqL9lL/pvyc8QnAEl93NcAyBW/FwDQuFesGn5QaPXfI5gJ/cZyb9FRGQkAfFynVc2c+vUFQPaRF4+pqAQgV/jGTuoiw5ejuz4NHTyA1MCcqahH9Cffo8+AJsIAYY6+9pMm4jz6/sYPAbxTXJMJXpFPADtCfb0cfYXb0yYjUsTj9xmOj996HxVkBmj6nIrPEEBFcTVFE4BGpYrPEEBFcTVFjx4ABt1jDLaf8TlNH4h2jEH3ZPNEdtoXxt9ecf8NP8/XnxcMym8aoXc9M1oAaPi/F/3WnxINH2H8iK/8DzmFjA4AGnyJ6E0v+53kCLbLZp0hNwCRgKgvCcBgFuNSV4PXW5PwaY5f7YJg9/i+cKPtmiQAaTFtEMvRxlMPpYDUO2UaAKkyuRA6sRqKyt/VjvxNYikTsFdwLZHUAsiFEA6gZLlZEk+6j1MTZ9Kb7xYAORDCAaCB96h4mvFEXA8QYO+YYwVghdAFAGFv2KMbekE3NN1HPgeABUIXAIS+ZSkJkAtAC0HyX31LUmpg7X5JEkCqn2QvzY4kewJweEVpMMfTa2fDtvJLM6ApczAvaLQNwQvArjEhvAtqW1CrP08A2yAQgEDEG8AmBAIIAPAeAgEEAWgg8F8VBALQjEfVvwdoKhH5TI0xwNKeYgAWZ318VurDS9skAig5v19auWh7zzOou9qiAZB9fj9awFL/3udQt9VHBBC5oVIqYKm9x2uwUh1EAOvp1OiyoI3oT9qqAKwhqM/vS9S7fr+Nvr/RQA1gLJnQVuRnAUhG287vdz2ipfrVfP9A8m3KAKkw3rcrQAB2zVwtCMBVTnthBGDXzNWCAFzltBdGAHbNXC0IwFVOe2EEYNfM1YIAXOW0F0YAds1cLQjAVU57YQRg18zVggBc5bQXRgB2zVwtCMBVTnthBGDXzNXiL+sNXY5GXp4mAAAAAElFTkSuQmCC;fontSize=8;spacingTop=-8;" vertex="1" parent="1">
                    <mxGeometry x="390" y="399.5" width="20" height="20" as="geometry"/>
                </mxCell>
                <mxCell id="75" value="Kuliah" style="shape=image;imageAspect=0;aspect=fixed;verticalLabelPosition=bottom;verticalAlign=top;strokeColor=#000000;image=data:image/png,iVBORw0KGgoAAAANSUhEUgAAAGAAAABgCAYAAADimHc4AAAEO0lEQVR4Xu2d63UaMRBGeTTgVBC7gjgdgGnAriCkAjuVmFQQ3EEKALypIE4FoQRSAJBPOd4cZQPsjKRBjx1+2eeI0epezUjsA/o9fUUl0I/au3beUwGRJ4EKUAGRCRC7H41GF4PB4L7f79/iLdfW217w93y73T5VVbUhhvvbTDOAQOzm5maKZo+Af3Gs+X6/X+92uztIMELILxXQgsrAB/gvVKIQ8XG1Ws2p7VXACVJc+HUojgQVcESAK3yuBBVwQIAvfBMSWbDBmjBuWxNUQENACPhWFrRKUAGWgJDwqRK8BWB/fI398Qd0eIvdwiV19T9Du1/Ym4/aSkB9HBLwGxLe41jWzXF7CcBBm73xwxlgcrtIBr514NVyuRwHEzCZTL4jmP2JkAtJqn2K8Oux3kHCV3vgThmAmT/DzL+XIugRN2X4ZlhPEDD1EmBq/nA4NLM/tVfq8M3WdI1PyVdeAhKd/cnDr6EjA/6pOuwSBAE/dbfjnvzeArD47t27D/7ObGa+GTlK0DeUoJFXCWoT0DQcHLljQMl9PvWQIOATBMw6JyAF+IBusvWyedGGvQbklgGJwO9h3RwvFovK+4NYTgI48FEefgCSuZplTqsEfZ26PlBsBnDh49SxOW+0wQSbh5TQdnGmSAGu8OtpH0pCG3zTX3ECfOHXEjhxDtUrCvziBHCgmZpfl51jBZ8Tz45BhV+UAA4sCnwrEx6wOD9SV2UO/GIESME3N2PhxOMzQJFOu3PhFyEgZ/jZC8gdftYCSoCfrYBS4GcpoCT42QkoDX5WAkqEn42AUuFnIaBk+MkLKB1+0gJyhG+OmfN0TLICcoVvHmXi3pSQ3PWAnOGbGZ29gLZrzvVpYc4pZcmzms0J0wkBqcLvRAakDL8TAnBz0xvKE+nnLDv21bLiSxBlgLHgdyID2gRIwjeA2zYJbcfXvLac3DbUZ4DS8FXAiX32OeCrgCMCzgVfBVBvzjnRzuXWETucT4k8dFjZrQE+DnzhawZ40A8BXwU4CggFXwU4CAgJXwUwBYSGrwIYAiTgqwCiACn4nRBAZBytWfGfA6KRJXasAoigpJqpACmyxLgqgAhKqpkKkCJLjKsCiKCkmqkAKbLEuCqACEqqmQqQIkuMqwKIoKSaqQApssS4KoAISqqZCpAiS4yrAoigpJqpACmyxLjJCyCOo9hm4veG4omQNZ6FelssQY+BmWcX8JAe6buF6m7YN2Yl+uXdHtjCvRUCPkMA6wct2AIS/vr6cCQdI+HhkatDP1NyKhxbgAmmWfA/UpfZb6I4CXiV8IK14J3jZCnqbS6133kNsMlpJvz5Snp23bcZOmdAHeT1Z6ym+H/UlYwwMx7jrfC9ozNuzW+mvreAompJhMGogAjQg5agyMefffeaAZEVqgAVEJlA5O41A1RAZAKRu9cMUAGRCUTuXjNABUQmELn73yrc5Z3k6dfYAAAAAElFTkSuQmCC;fontSize=7;spacingTop=-8;" vertex="1" parent="1">
                    <mxGeometry x="436" y="400.5" width="20" height="20" as="geometry"/>
                </mxCell>
                <mxCell id="76" value="Acara" style="shape=image;imageAspect=0;aspect=fixed;verticalLabelPosition=bottom;verticalAlign=top;strokeColor=#000000;image=data:image/png,iVBORw0KGgoAAAANSUhEUgAAAGAAAABgCAYAAADimHc4AAAGi0lEQVR4Xu1d7XEbNxAVJRWgDqJUYLoCk5L+W64gcgWRKzBVgakKTFVg6r8+mArMVGClgsj/9ZH3NDgPdbzDx2FxADN7MzcZmcACeG93sQAWl8GWPlkRGGRtXRvfUgIyK4ESoARkRiBz82oBSkBmBDI3rxagBGRGIHPzagFKQGYEMjevFlA6AaPRaLi9vf0H+nk8GAz2M/d3I5p/fn6+Q0fnT09PF4vFYmnrtNUCDg4OvgD0040YdaGdBBnTm5ubT23dayXg8PDwOyoNCx3XpnVrcX19PW7qdCMB0PwpNP/PTRtlyf2FJZzDEta8yRoB9Pk7OzvUfn2EEXh8fPwdcwLnh1/PGgGq/cKor4hrsoImAn5otJOMhCXmgrdWC8Dk+5yseRW8BQJeKf2aBbgIqAtQTF8jEIqfEiCsQUqAMKCh4pSAUMSEy28MAVhv7CHaeoe32mPaW1l5c//knnsqeOd4/0L8fC+MVRJxxRMA4PexufcZwJ+EIAASZtjcOqsvZEJk9FG2aAKwyCPwkxggQMQES/qzGBkp6xZJAN0NtjduV1xMLAZLLOvHJbql4ggw5wnfpFfXnB/gkj649ttjmQ6tXxQB1Hz4++/S4FegGBLelmQJRRHQ05nC2v5KqNZKli+GAEy4E2j+Z8nBtcmCJZxhYo6a3KX6WQQBDDUx6f7wGRTA+xvlGGLOqxDThKrH+PcTkPjGJQcy7lGfrujOVTb170UQgE7MMFAe5FsfAPcJmju1FYIlnYKELy5Z+P0CG4UnHuWSFslOgAk5/3WNEmEkNdaaMVDJODo6GoEshrHWp4Sd2uwEoAN0Hd9sSPlofr2+pyV8AAlzF1Epfy+BAKv7oc+H2+mUbQES7uCOfrMAmN0NZScAIC24ydYGUhftr2S5rICbdiB3lFLDXbJLIMB6ptyUGeAaVPW7R8ZG9jVBdgJCO+ALflUutfzQ/tTLh/ZP/EgytAOhA04tP7Q/xRHgmihTuqCYCT4W+K4WKm4BOgnb03qSp6V4rII7T5Qg15U0pmGoLsQyW0CKrQiP8PPFBetWhJmJPNxQNWedArRz2wQIWUyTt27YmfrZ3Q/7ERqliU/C7ETIdjSKc0NuhuiIqScvm3NG498hquFO6L5HhPIT9Ye6Hb2ClB7INKtN8ihotVmQsPQ5UPHQ8NYiJcT+q50rwgVVHTKH8iTBtoPZGX+A/w9Owuh6ismaK4qAyp8jM2IuTYIB/9j3UKczy4EVowkIbM+ruLEEblM7z3d9BNLtQPNHJWl+1e8iCag6JzAx/zT3bic+ROUoUzQBKyEqAXQe2tcAvECoOSkh1LQRWzwBtYiB58fH0GrG+kxXf3FRJlXlHn/f4c957nPeEEvaKAJCBrYpZZWAzEwpAUpAZgQyN1+sBZg7YW+wKBty0sUEW88NGtWwW6z+jTpcUfNOwJKTdIlrAPa3GALG4/F7goyXaYX8Ly/hiT1MyIVMkrEgObe3t5diwiMEZSPAHMS8Z1hp3ohhdK7KtMQ51guXuSykVwIM6FxQneDtlG7YGWp3xeqcgZ8N622zrhcCqqum1HRp1+LGNawEXRWtoq8rrkkJMGnivPVSnzDDUMlXmruy51dXV68meMnuJCGAwEODvnoeD0qOJ4ksXu5DNPYxBRHiBPyfv5xodlZbv2jYhX1RAgA+tZ4TrMjDQxQTOjKm5/trcqxrI62uahT19kwoyzUEQ1qxEzbImyGl/aPIACFEjACBvftqV3MGc18+PDwspaIRRl+7u7tDHkcyAos96AEJYrcsRQjwvZPVojWXGBCjDuDdz61FE5WNQATXIFyLBD8hd9ZswkUIgBBeiPOOdOhaUH4K0GdSWh6MoKlgjj/pNplTFOKqWj+uGtKXaAJ80wDZKV4JwiCnpR6YME/VJHe1XplaBVfCCqIJ8PluKIGHtp+WlpHQpqnmgyH8GrCVCIyr8eu2vVqAR35/51uOIQNJUdaVKEbFir3kF20BLgHQonGKBUwKwOsyfYKL2AxrF369pib2AWpoG6EApZafJDs6tNN9ls9JQFMeqxJQYz+lC2qa5JWAHgnw+ny9y0T7dBc52kplAW0hbrAF5AClzzZTENDk+6sxKQGJXZBrcacEJCDA5LYusFswdW1IKgHCBIS6SyVACQjVmbTlYyfh0N6pBZRmAaEMavk4BPT/phqHX3RtJSAawjgBSkAcftG1lYBoCOMEKAFx+EXXVgKiIYwToATE4Rdd+z8gf7GdSFZnVwAAAABJRU5ErkJggg==;fontSize=7;spacingTop=-8;" vertex="1" parent="1">
                    <mxGeometry x="478" y="401" width="20" height="20" as="geometry"/>
                </mxCell>
                <mxCell id="78" value="&lt;font style=&quot;font-size: 7px;&quot;&gt;Masukan kata&lt;/font&gt;" style="html=1;shadow=0;dashed=0;shape=mxgraph.bootstrap.rrect;rSize=5;strokeColor=#999999;fillColor=#ffffff;fontColor=#777777;whiteSpace=wrap;align=left;verticalAlign=middle;fontStyle=0;fontSize=7;spacing=15;spacingTop=0;" vertex="1" parent="1">
                    <mxGeometry x="400" y="119" width="73.33" height="20" as="geometry"/>
                </mxCell>
                <mxCell id="79" value="Cari" style="html=1;shadow=0;dashed=0;shape=mxgraph.bootstrap.rrect;rSize=5;strokeColor=none;fillColor=#0085FC;fontColor=#ffffff;whiteSpace=wrap;align=center;verticalAlign=middle;fontStyle=0;fontSize=9;spacing=14;" vertex="1" parent="1">
                    <mxGeometry x="478" y="119" width="30" height="20" as="geometry"/>
                </mxCell>
                <mxCell id="81" value="" style="rounded=1;whiteSpace=wrap;html=1;fontSize=10;arcSize=6;" vertex="1" parent="1">
                    <mxGeometry x="333" y="148" width="175" height="80" as="geometry"/>
                </mxCell>
                <mxCell id="82" value="Foto" style="rounded=1;whiteSpace=wrap;html=1;fontSize=10;arcSize=6;" vertex="1" parent="1">
                    <mxGeometry x="333" y="148" width="67" height="80" as="geometry"/>
                </mxCell>
                <mxCell id="83" value="Judul judul" style="text;html=1;strokeColor=none;fillColor=none;align=center;verticalAlign=middle;whiteSpace=wrap;rounded=0;fontSize=10;fontStyle=1" vertex="1" parent="1">
                    <mxGeometry x="403" y="144" width="60" height="30" as="geometry"/>
                </mxCell>
                <mxCell id="84" value="wkwkwkwkwkwkwkwkw&lt;br style=&quot;font-size: 8px;&quot;&gt;kwwkwkwkwkwkwkwkw&lt;br style=&quot;font-size: 8px;&quot;&gt;wwkkwkwkwkwkw" style="text;html=1;strokeColor=none;fillColor=none;align=left;verticalAlign=middle;whiteSpace=wrap;rounded=0;fontSize=8;" vertex="1" parent="1">
                    <mxGeometry x="403.33" y="169" width="96.67" height="30" as="geometry"/>
                </mxCell>
                <mxCell id="85" value="Logo" style="text;html=1;strokeColor=none;fillColor=none;align=center;verticalAlign=middle;whiteSpace=wrap;rounded=0;fontSize=13;" vertex="1" parent="1">
                    <mxGeometry x="325" y="114" width="60" height="30" as="geometry"/>
                </mxCell>
                <mxCell id="86" value="Daftar" style="rounded=1;whiteSpace=wrap;html=1;fontSize=10;arcSize=14;" vertex="1" parent="1">
                    <mxGeometry x="405.33" y="204" width="44.67" height="20" as="geometry"/>
                </mxCell>
                <mxCell id="89" value="Tenggat - 20:30&lt;br&gt;12 Mei 2024" style="text;html=1;strokeColor=none;fillColor=none;align=right;verticalAlign=middle;whiteSpace=wrap;rounded=0;fontSize=6;" vertex="1" parent="1">
                    <mxGeometry x="448" y="211" width="57" height="10" as="geometry"/>
                </mxCell>
                <mxCell id="105" value="Kuliah" style="verticalLabelPosition=bottom;verticalAlign=top;html=1;shadow=0;dashed=0;strokeWidth=1;shape=mxgraph.android.phone2;strokeColor=#000000;" vertex="1" parent="1">
                    <mxGeometry x="543" y="85" width="200" height="390" as="geometry"/>
                </mxCell>
                <mxCell id="106" value="" style="rounded=0;whiteSpace=wrap;html=1;" vertex="1" parent="1">
                    <mxGeometry x="551" y="399" width="185" height="42" as="geometry"/>
                </mxCell>
                <mxCell id="107" value="Lomba" style="shape=image;imageAspect=0;aspect=fixed;verticalLabelPosition=bottom;verticalAlign=top;strokeColor=#000000;image=data:image/png,iVBORw0KGgoAAAANSUhEUgAAAGAAAABgCAYAAADimHc4AAAF/0lEQVR4Xu2c/VEbSRDFJQjAdgQnR3A4AstAAM7AIoIzERhHYBGBRQRHAIDlCMxFYC4CmwCAe+9qt2q91s50z2zvaKFVpeKP7Znpeb+enq8V04l/iiowLdq6Nz5xAIWDwAE4gMIKFG7eR4ADKKxA4eZ9BDiAwgoUbt5HgAMorEDh5n0EPDUABwcHD4X7HGz+8vJy0KActDH23AH8yt8BtMaDj4DC+ckBOABbBXwO8DnAV0G2Yyyv9tHNAfP5fG9nZ+cduv12Op3O8ro/mVgL0EcKfHh4uEE/z+/v78/W6/V1Tp+zlqH7+/ufIPr7HAfaZccAoOkzYCyvrq6OUzVIBoBI+oZG91Ib7io3NgBVP9bw+02KFkkAEPlLRP5fKQ3GyowUwAQj4RQjQZ0N1ACY83d3dxn9Jp+xAqAYd3d3LzEncH4Qf9QALKOfXo8ZQMooSAHwvY/VziObA+ruXCOAXonDH4ZqAH0s40IOjnkEpIzg3gHEBIwBjJXXRNcm29z2c8u3fXIALUViAeAAModAroC55X0ERK5EfQQY38nmRnBu+ewRgH3ADZahf3RlAmxGXmAz8rPred8d0GaknPaxCZ1hE/q9q03sA/7Fbnim8Uk9CQPAGgBedzWCZ28uLi7WjxEA4L1Fv/4OAPgKAPOiAGK7wZwI1HTMIgBipwDo+yAA3iPKPwWi4AZR8NJCgC0AEDwFAIBj9H2p8VOdgiSHcXDkCI6sLDZCms712T6if4HA+xxqH/PfK+0FjRoAHYhNxADwE7dFPBn8bTIeYwpC0D3HrR+j/3mfEzDrSgVwAmc+RKJx4yXFGAHA5y/oa3ByRdB9xKg/0Y7QJACMCCzHbtDYs1CDcGoFp46aNmMDgNH+GcG2iAh7i/QzCy2/u8onAajSkGQU0HQN547qi4qxAKjW/Mz5wchnB1OjPzkFsaB0FFQOci5YYl44xcj5EYqm2FGAdoi37WMBwI0k8j2vW7na68z5jXqToz8LAAsfHh7OQZ/5UfTh5BzrVGkAEh+bnY1tPGPCJKegumLkSGkqivny//PSAEROVkY5qaduJxsAK8KwXuEPX87K/qRcbEsblexhpHXB7gzBslDYbzTtBUCfEHKHdEgQbcoM1NWL+Ky/NwCsLHZWIomW2FmSpI4um230r1cA7DijDKudVejIOiKi+s0CKRQASH6jg0fNWB0tQie9Uj+adr0DYOXV1p2Tc9Lbc6GzpJROVqMzepbTVTdHJYLqJGWjFfPXBEDdaAWCExXX1J2XOG0n+fYxOsyDrc6LnVjHms8rP75p3mdixKMO7l1WffmxyWdTAC0R+Bo7X+bldw4x/gyJuOkYQyN601ZynID2/kGZNb7XEP1ae6qZ6ttgAFowgld7tW0fECTisz3L5W8IThEAdEi6dyAEROSxNg1UaYe/X2AKjH16W1bGGmo/LwagOuzir0uCJ6p0mHMChDzBxudM0kHAfYcyXATMBPY8y9nTvtUsqFdkUgwAvUN6CF5vtntQ/zQIf8/xva3zNHe4EPsZvrw0V/1UKuUaUaSs0KgoAE0qEvZHa1Ys9dSOFgdQ5Wq+6hJcFWmVjdlz1YO5Za6dW2L1ap8XB0CHh4awLeKz71sBoI4a6cpIG2Ut++Jpp+nPVgGo5gROpCt8o6sjJYhb2C+wkjpXljM13zoAjZTEFVLszQuROLw4Qb5fls73m5zdSgC1o9XcwJ9+8iBNfJbE8kOd5YgiIGC01QCaflf/EoFnSJ2vRVbCHyPaEex5/0IgV1hp+dEAaEzUwf85Z32nLBVWaucApEoZ2TkAI2Gl1ToAqVJGdg7ASFhptQ5AqpSRnQMwElZarQOQKmVk5wCMhJVW6wCkShnZOQAjYaXVOgCpUkZ2gwOI/ULFqJ/iaoc+S3IALTQOQByrNoYOwEZXca0OQCyVjaEDsNFVXKsDEEtlY+gAbHQV1/roAYiVeCKGg+8Dnoiu4m46ALFUNoYOwEZXca0OQCyVjaEDsNFVXKsDEEtlY+gAbHQV1+oAxFLZGDoAG13FtToAsVQ2hg7ARldxrf8BCGFHjm6cwn8AAAAASUVORK5CYII=;fontSize=8;spacingTop=-8;" vertex="1" parent="1">
                    <mxGeometry x="568" y="407" width="20" height="20" as="geometry"/>
                </mxCell>
                <mxCell id="108" value="Seminar" style="shape=image;imageAspect=0;aspect=fixed;verticalLabelPosition=bottom;verticalAlign=top;strokeColor=#000000;image=data:image/png,iVBORw0KGgoAAAANSUhEUgAAAGAAAABgCAYAAADimHc4AAAEj0lEQVR4Xu2cjVEbMRCFMTRAByEVBCqIAw3QQaCChEpCKgA6oAEYU0GcCkIJNGA7TxnfDOPY3l1pdXs/72Y8A9ytVnrfriRLOiYHvEIVmIR6p/MDAggOAgIggGAFgt0zAwggWIFg98wAAghWINg9M4AAghUIds8MIIBgBYLdMwMIIFiBYPfMgL4BmE6np4eHh19R78vJZHISXH8X96vV6hUFPS6Xy4fZbDZ3KVRZiCkDzs/Pf0D078qye/kYYNw+Pz/ftFV5NYCLi4tfqNRpWxUL9jN7enr60kYdVAAQ+beI/G9tVKgrPpAJP5EJ1bNdBJD6/KOjoxT9o7sWi8VHjAlpfKh2iQDGGP2N2m1kgQbAn6HMdjLCeI6x4CzDTm0iAsDgu1KXNsAHAUDUqKTZYuESgNoVLGmcxja6fQQgZHjtACOAigAwgbnCVPZ+XyYSQCUASXxMXu6kDCKACgAa8VPkE4AwEnsPwu/FJwDFNMgTwKb4BNAigG3i9xLAtv2Gmuv1HhmwS/zeAdDsN3iv15cC2Cd+rwAY9xvc1utLAEji9wZAzoqr10plLgCN+L0AULLf4LFenwNAK34vAOREv+d6vRWARfy+ACjZbyher7cAsIrfCwCSANJUXvqqL9lL/pvyc8QnAEl93NcAyBW/FwDQuFesGn5QaPXfI5gJ/cZyb9FRGQkAfFynVc2c+vUFQPaRF4+pqAQgV/jGTuoiw5ejuz4NHTyA1MCcqahH9Cffo8+AJsIAYY6+9pMm4jz6/sYPAbxTXJMJXpFPADtCfb0cfYXb0yYjUsTj9xmOj996HxVkBmj6nIrPEEBFcTVFE4BGpYrPEEBFcTVFjx4ABt1jDLaf8TlNH4h2jEH3ZPNEdtoXxt9ecf8NP8/XnxcMym8aoXc9M1oAaPi/F/3WnxINH2H8iK/8DzmFjA4AGnyJ6E0v+53kCLbLZp0hNwCRgKgvCcBgFuNSV4PXW5PwaY5f7YJg9/i+cKPtmiQAaTFtEMvRxlMPpYDUO2UaAKkyuRA6sRqKyt/VjvxNYikTsFdwLZHUAsiFEA6gZLlZEk+6j1MTZ9Kb7xYAORDCAaCB96h4mvFEXA8QYO+YYwVghdAFAGFv2KMbekE3NN1HPgeABUIXAIS+ZSkJkAtAC0HyX31LUmpg7X5JEkCqn2QvzY4kewJweEVpMMfTa2fDtvJLM6ApczAvaLQNwQvArjEhvAtqW1CrP08A2yAQgEDEG8AmBAIIAPAeAgEEAWgg8F8VBALQjEfVvwdoKhH5TI0xwNKeYgAWZ318VurDS9skAig5v19auWh7zzOou9qiAZB9fj9awFL/3udQt9VHBBC5oVIqYKm9x2uwUh1EAOvp1OiyoI3oT9qqAKwhqM/vS9S7fr+Nvr/RQA1gLJnQVuRnAUhG287vdz2ipfrVfP9A8m3KAKkw3rcrQAB2zVwtCMBVTnthBGDXzNWCAFzltBdGAHbNXC0IwFVOe2EEYNfM1YIAXOW0F0YAds1cLQjAVU57YQRg18zVggBc5bQXRgB2zVwtCMBVTnthBGDXzNXiL+sNXY5GXp4mAAAAAElFTkSuQmCC;fontSize=8;spacingTop=-8;" vertex="1" parent="1">
                    <mxGeometry x="613" y="406.5" width="20" height="20" as="geometry"/>
                </mxCell>
                <mxCell id="109" value="Kuliah" style="shape=image;imageAspect=0;aspect=fixed;verticalLabelPosition=bottom;verticalAlign=top;strokeColor=#000000;image=data:image/png,iVBORw0KGgoAAAANSUhEUgAAAGAAAABgCAYAAADimHc4AAAEO0lEQVR4Xu2d63UaMRBGeTTgVBC7gjgdgGnAriCkAjuVmFQQ3EEKALypIE4FoQRSAJBPOd4cZQPsjKRBjx1+2eeI0epezUjsA/o9fUUl0I/au3beUwGRJ4EKUAGRCRC7H41GF4PB4L7f79/iLdfW217w93y73T5VVbUhhvvbTDOAQOzm5maKZo+Af3Gs+X6/X+92uztIMELILxXQgsrAB/gvVKIQ8XG1Ws2p7VXACVJc+HUojgQVcESAK3yuBBVwQIAvfBMSWbDBmjBuWxNUQENACPhWFrRKUAGWgJDwqRK8BWB/fI398Qd0eIvdwiV19T9Du1/Ym4/aSkB9HBLwGxLe41jWzXF7CcBBm73xwxlgcrtIBr514NVyuRwHEzCZTL4jmP2JkAtJqn2K8Oux3kHCV3vgThmAmT/DzL+XIugRN2X4ZlhPEDD1EmBq/nA4NLM/tVfq8M3WdI1PyVdeAhKd/cnDr6EjA/6pOuwSBAE/dbfjnvzeArD47t27D/7ObGa+GTlK0DeUoJFXCWoT0DQcHLljQMl9PvWQIOATBMw6JyAF+IBusvWyedGGvQbklgGJwO9h3RwvFovK+4NYTgI48FEefgCSuZplTqsEfZ26PlBsBnDh49SxOW+0wQSbh5TQdnGmSAGu8OtpH0pCG3zTX3ECfOHXEjhxDtUrCvziBHCgmZpfl51jBZ8Tz45BhV+UAA4sCnwrEx6wOD9SV2UO/GIESME3N2PhxOMzQJFOu3PhFyEgZ/jZC8gdftYCSoCfrYBS4GcpoCT42QkoDX5WAkqEn42AUuFnIaBk+MkLKB1+0gJyhG+OmfN0TLICcoVvHmXi3pSQ3PWAnOGbGZ29gLZrzvVpYc4pZcmzms0J0wkBqcLvRAakDL8TAnBz0xvKE+nnLDv21bLiSxBlgLHgdyID2gRIwjeA2zYJbcfXvLac3DbUZ4DS8FXAiX32OeCrgCMCzgVfBVBvzjnRzuXWETucT4k8dFjZrQE+DnzhawZ40A8BXwU4CggFXwU4CAgJXwUwBYSGrwIYAiTgqwCiACn4nRBAZBytWfGfA6KRJXasAoigpJqpACmyxLgqgAhKqpkKkCJLjKsCiKCkmqkAKbLEuCqACEqqmQqQIkuMqwKIoKSaqQApssS4KoAISqqZCpAiS4yrAoigpJqpACmyxLjJCyCOo9hm4veG4omQNZ6FelssQY+BmWcX8JAe6buF6m7YN2Yl+uXdHtjCvRUCPkMA6wct2AIS/vr6cCQdI+HhkatDP1NyKhxbgAmmWfA/UpfZb6I4CXiV8IK14J3jZCnqbS6133kNsMlpJvz5Snp23bcZOmdAHeT1Z6ym+H/UlYwwMx7jrfC9ozNuzW+mvreAompJhMGogAjQg5agyMefffeaAZEVqgAVEJlA5O41A1RAZAKRu9cMUAGRCUTuXjNABUQmELn73yrc5Z3k6dfYAAAAAElFTkSuQmCC;fontSize=7;spacingTop=-8;" vertex="1" parent="1">
                    <mxGeometry x="659" y="407.5" width="20" height="20" as="geometry"/>
                </mxCell>
                <mxCell id="110" value="Acara" style="shape=image;imageAspect=0;aspect=fixed;verticalLabelPosition=bottom;verticalAlign=top;strokeColor=#000000;image=data:image/png,iVBORw0KGgoAAAANSUhEUgAAAGAAAABgCAYAAADimHc4AAAGi0lEQVR4Xu1d7XEbNxAVJRWgDqJUYLoCk5L+W64gcgWRKzBVgakKTFVg6r8+mArMVGClgsj/9ZH3NDgPdbzDx2FxADN7MzcZmcACeG93sQAWl8GWPlkRGGRtXRvfUgIyK4ESoARkRiBz82oBSkBmBDI3rxagBGRGIHPzagFKQGYEMjevFlA6AaPRaLi9vf0H+nk8GAz2M/d3I5p/fn6+Q0fnT09PF4vFYmnrtNUCDg4OvgD0040YdaGdBBnTm5ubT23dayXg8PDwOyoNCx3XpnVrcX19PW7qdCMB0PwpNP/PTRtlyf2FJZzDEta8yRoB9Pk7OzvUfn2EEXh8fPwdcwLnh1/PGgGq/cKor4hrsoImAn5otJOMhCXmgrdWC8Dk+5yseRW8BQJeKf2aBbgIqAtQTF8jEIqfEiCsQUqAMKCh4pSAUMSEy28MAVhv7CHaeoe32mPaW1l5c//knnsqeOd4/0L8fC+MVRJxxRMA4PexufcZwJ+EIAASZtjcOqsvZEJk9FG2aAKwyCPwkxggQMQES/qzGBkp6xZJAN0NtjduV1xMLAZLLOvHJbql4ggw5wnfpFfXnB/gkj649ttjmQ6tXxQB1Hz4++/S4FegGBLelmQJRRHQ05nC2v5KqNZKli+GAEy4E2j+Z8nBtcmCJZxhYo6a3KX6WQQBDDUx6f7wGRTA+xvlGGLOqxDThKrH+PcTkPjGJQcy7lGfrujOVTb170UQgE7MMFAe5FsfAPcJmju1FYIlnYKELy5Z+P0CG4UnHuWSFslOgAk5/3WNEmEkNdaaMVDJODo6GoEshrHWp4Sd2uwEoAN0Hd9sSPlofr2+pyV8AAlzF1Epfy+BAKv7oc+H2+mUbQES7uCOfrMAmN0NZScAIC24ydYGUhftr2S5rICbdiB3lFLDXbJLIMB6ptyUGeAaVPW7R8ZG9jVBdgJCO+ALflUutfzQ/tTLh/ZP/EgytAOhA04tP7Q/xRHgmihTuqCYCT4W+K4WKm4BOgnb03qSp6V4rII7T5Qg15U0pmGoLsQyW0CKrQiP8PPFBetWhJmJPNxQNWedArRz2wQIWUyTt27YmfrZ3Q/7ERqliU/C7ETIdjSKc0NuhuiIqScvm3NG498hquFO6L5HhPIT9Ye6Hb2ClB7INKtN8ihotVmQsPQ5UPHQ8NYiJcT+q50rwgVVHTKH8iTBtoPZGX+A/w9Owuh6ismaK4qAyp8jM2IuTYIB/9j3UKczy4EVowkIbM+ruLEEblM7z3d9BNLtQPNHJWl+1e8iCag6JzAx/zT3bic+ROUoUzQBKyEqAXQe2tcAvECoOSkh1LQRWzwBtYiB58fH0GrG+kxXf3FRJlXlHn/f4c957nPeEEvaKAJCBrYpZZWAzEwpAUpAZgQyN1+sBZg7YW+wKBty0sUEW88NGtWwW6z+jTpcUfNOwJKTdIlrAPa3GALG4/F7goyXaYX8Ly/hiT1MyIVMkrEgObe3t5diwiMEZSPAHMS8Z1hp3ohhdK7KtMQ51guXuSykVwIM6FxQneDtlG7YGWp3xeqcgZ8N622zrhcCqqum1HRp1+LGNawEXRWtoq8rrkkJMGnivPVSnzDDUMlXmruy51dXV68meMnuJCGAwEODvnoeD0qOJ4ksXu5DNPYxBRHiBPyfv5xodlZbv2jYhX1RAgA+tZ4TrMjDQxQTOjKm5/trcqxrI62uahT19kwoyzUEQ1qxEzbImyGl/aPIACFEjACBvftqV3MGc18+PDwspaIRRl+7u7tDHkcyAos96AEJYrcsRQjwvZPVojWXGBCjDuDdz61FE5WNQATXIFyLBD8hd9ZswkUIgBBeiPOOdOhaUH4K0GdSWh6MoKlgjj/pNplTFOKqWj+uGtKXaAJ80wDZKV4JwiCnpR6YME/VJHe1XplaBVfCCqIJ8PluKIGHtp+WlpHQpqnmgyH8GrCVCIyr8eu2vVqAR35/51uOIQNJUdaVKEbFir3kF20BLgHQonGKBUwKwOsyfYKL2AxrF369pib2AWpoG6EApZafJDs6tNN9ls9JQFMeqxJQYz+lC2qa5JWAHgnw+ny9y0T7dBc52kplAW0hbrAF5AClzzZTENDk+6sxKQGJXZBrcacEJCDA5LYusFswdW1IKgHCBIS6SyVACQjVmbTlYyfh0N6pBZRmAaEMavk4BPT/phqHX3RtJSAawjgBSkAcftG1lYBoCOMEKAFx+EXXVgKiIYwToATE4Rdd+z8gf7GdSFZnVwAAAABJRU5ErkJggg==;fontSize=7;spacingTop=-8;" vertex="1" parent="1">
                    <mxGeometry x="701" y="408" width="20" height="20" as="geometry"/>
                </mxCell>
                <mxCell id="112" value="&lt;font style=&quot;font-size: 7px;&quot;&gt;Masukan kata&lt;/font&gt;" style="html=1;shadow=0;dashed=0;shape=mxgraph.bootstrap.rrect;rSize=5;strokeColor=#999999;fillColor=#ffffff;fontColor=#777777;whiteSpace=wrap;align=left;verticalAlign=middle;fontStyle=0;fontSize=7;spacing=15;spacingTop=0;" vertex="1" parent="1">
                    <mxGeometry x="623" y="126" width="73.33" height="20" as="geometry"/>
                </mxCell>
                <mxCell id="113" value="Cari" style="html=1;shadow=0;dashed=0;shape=mxgraph.bootstrap.rrect;rSize=5;strokeColor=none;fillColor=#0085FC;fontColor=#ffffff;whiteSpace=wrap;align=center;verticalAlign=middle;fontStyle=0;fontSize=9;spacing=14;" vertex="1" parent="1">
                    <mxGeometry x="701" y="126" width="30" height="20" as="geometry"/>
                </mxCell>
                <mxCell id="115" value="" style="rounded=1;whiteSpace=wrap;html=1;fontSize=10;arcSize=3;" vertex="1" parent="1">
                    <mxGeometry x="556" y="175" width="175" height="140" as="geometry"/>
                </mxCell>
                <mxCell id="117" value="Senin, 6 Mei 2024" style="text;html=1;strokeColor=none;fillColor=none;align=center;verticalAlign=middle;whiteSpace=wrap;rounded=0;fontSize=10;fontStyle=1" vertex="1" parent="1">
                    <mxGeometry x="555" y="172" width="102" height="30" as="geometry"/>
                </mxCell>
                <mxCell id="119" value="Logo" style="text;html=1;strokeColor=none;fillColor=none;align=center;verticalAlign=middle;whiteSpace=wrap;rounded=0;fontSize=13;" vertex="1" parent="1">
                    <mxGeometry x="548" y="121" width="60" height="30" as="geometry"/>
                </mxCell>
                <mxCell id="120" value="Algoritma dan&lt;br&gt;Pemograman 2" style="rounded=1;whiteSpace=wrap;html=1;fontSize=10;arcSize=6;align=left;spacingLeft=57;" vertex="1" parent="1">
                    <mxGeometry x="563" y="198" width="162" height="52" as="geometry"/>
                </mxCell>
                <mxCell id="139" value="&lt;font style=&quot;font-size: 6px;&quot;&gt;222PB&lt;/font&gt;" style="html=1;shadow=0;dashed=0;shape=mxgraph.bootstrap.rrect;rSize=5;strokeColor=none;strokeWidth=1;fillColor=#6C767D;fontColor=#ffffff;whiteSpace=wrap;align=left;verticalAlign=middle;fontStyle=0;fontSize=4;spacingLeft=3;" vertex="1" parent="1">
                    <mxGeometry x="556" y="151" width="44" height="16" as="geometry"/>
                </mxCell>
                <mxCell id="140" value="" style="shape=triangle;direction=south;fillColor=#ffffff;strokeColor=none;perimeter=none;fontSize=8;" vertex="1" parent="139">
                    <mxGeometry x="1" y="0.5" width="8" height="4" relative="1" as="geometry">
                        <mxPoint x="-15" y="-2" as="offset"/>
                    </mxGeometry>
                </mxCell>
                <mxCell id="145" value="10:00" style="rounded=1;whiteSpace=wrap;html=1;fontSize=10;arcSize=6;align=center;spacingLeft=0;" vertex="1" parent="1">
                    <mxGeometry x="569" y="204" width="41" height="18" as="geometry"/>
                </mxCell>
                <mxCell id="146" value="12:00" style="rounded=1;whiteSpace=wrap;html=1;fontSize=10;arcSize=6;align=center;spacingLeft=0;" vertex="1" parent="1">
                    <mxGeometry x="569" y="226" width="41" height="18" as="geometry"/>
                </mxCell>
                <mxCell id="147" value="B201" style="rounded=1;whiteSpace=wrap;html=1;fontSize=8;arcSize=6;align=center;spacingLeft=0;" vertex="1" parent="1">
                    <mxGeometry x="695" y="204" width="25" height="12" as="geometry"/>
                </mxCell>
                <mxCell id="149" value="Bahasa Inggris 2" style="rounded=1;whiteSpace=wrap;html=1;fontSize=10;arcSize=6;align=left;spacingLeft=57;" vertex="1" parent="1">
                    <mxGeometry x="563" y="256" width="162" height="52" as="geometry"/>
                </mxCell>
                <mxCell id="150" value="13:00" style="rounded=1;whiteSpace=wrap;html=1;fontSize=10;arcSize=6;align=center;spacingLeft=0;" vertex="1" parent="1">
                    <mxGeometry x="569" y="262" width="41" height="18" as="geometry"/>
                </mxCell>
                <mxCell id="151" value="14:30" style="rounded=1;whiteSpace=wrap;html=1;fontSize=10;arcSize=6;align=center;spacingLeft=0;" vertex="1" parent="1">
                    <mxGeometry x="569" y="284" width="41" height="18" as="geometry"/>
                </mxCell>
                <mxCell id="152" value="online" style="rounded=1;whiteSpace=wrap;html=1;fontSize=8;arcSize=6;align=center;spacingLeft=0;" vertex="1" parent="1">
                    <mxGeometry x="690" y="262" width="30" height="12" as="geometry"/>
                </mxCell>
                <mxCell id="153" value="&lt;span style=&quot;&quot;&gt;222PB&lt;/span&gt;" style="text;html=1;align=center;verticalAlign=middle;resizable=0;points=[];autosize=1;strokeColor=none;fillColor=none;fontSize=8;" vertex="1" parent="1">
                    <mxGeometry x="683" y="176" width="50" height="20" as="geometry"/>
                </mxCell>
                <mxCell id="176" value="Kuliah" style="verticalLabelPosition=bottom;verticalAlign=top;html=1;shadow=0;dashed=0;strokeWidth=1;shape=mxgraph.android.phone2;strokeColor=#000000;" vertex="1" parent="1">
                    <mxGeometry x="544" y="-340" width="200" height="390" as="geometry"/>
                </mxCell>
                <mxCell id="177" value="" style="rounded=0;whiteSpace=wrap;html=1;" vertex="1" parent="1">
                    <mxGeometry x="552" y="-26" width="185" height="42" as="geometry"/>
                </mxCell>
                <mxCell id="178" value="Lomba" style="shape=image;imageAspect=0;aspect=fixed;verticalLabelPosition=bottom;verticalAlign=top;strokeColor=#000000;image=data:image/png,iVBORw0KGgoAAAANSUhEUgAAAGAAAABgCAYAAADimHc4AAAF/0lEQVR4Xu2c/VEbSRDFJQjAdgQnR3A4AstAAM7AIoIzERhHYBGBRQRHAIDlCMxFYC4CmwCAe+9qt2q91s50z2zvaKFVpeKP7Znpeb+enq8V04l/iiowLdq6Nz5xAIWDwAE4gMIKFG7eR4ADKKxA4eZ9BDiAwgoUbt5HgAMorEDh5n0EPDUABwcHD4X7HGz+8vJy0KActDH23AH8yt8BtMaDj4DC+ckBOABbBXwO8DnAV0G2Yyyv9tHNAfP5fG9nZ+cduv12Op3O8ro/mVgL0EcKfHh4uEE/z+/v78/W6/V1Tp+zlqH7+/ufIPr7HAfaZccAoOkzYCyvrq6OUzVIBoBI+oZG91Ib7io3NgBVP9bw+02KFkkAEPlLRP5fKQ3GyowUwAQj4RQjQZ0N1ACY83d3dxn9Jp+xAqAYd3d3LzEncH4Qf9QALKOfXo8ZQMooSAHwvY/VziObA+ruXCOAXonDH4ZqAH0s40IOjnkEpIzg3gHEBIwBjJXXRNcm29z2c8u3fXIALUViAeAAModAroC55X0ERK5EfQQY38nmRnBu+ewRgH3ADZahf3RlAmxGXmAz8rPred8d0GaknPaxCZ1hE/q9q03sA/7Fbnim8Uk9CQPAGgBedzWCZ28uLi7WjxEA4L1Fv/4OAPgKAPOiAGK7wZwI1HTMIgBipwDo+yAA3iPKPwWi4AZR8NJCgC0AEDwFAIBj9H2p8VOdgiSHcXDkCI6sLDZCms712T6if4HA+xxqH/PfK+0FjRoAHYhNxADwE7dFPBn8bTIeYwpC0D3HrR+j/3mfEzDrSgVwAmc+RKJx4yXFGAHA5y/oa3ByRdB9xKg/0Y7QJACMCCzHbtDYs1CDcGoFp46aNmMDgNH+GcG2iAh7i/QzCy2/u8onAajSkGQU0HQN547qi4qxAKjW/Mz5wchnB1OjPzkFsaB0FFQOci5YYl44xcj5EYqm2FGAdoi37WMBwI0k8j2vW7na68z5jXqToz8LAAsfHh7OQZ/5UfTh5BzrVGkAEh+bnY1tPGPCJKegumLkSGkqivny//PSAEROVkY5qaduJxsAK8KwXuEPX87K/qRcbEsblexhpHXB7gzBslDYbzTtBUCfEHKHdEgQbcoM1NWL+Ky/NwCsLHZWIomW2FmSpI4um230r1cA7DijDKudVejIOiKi+s0CKRQASH6jg0fNWB0tQie9Uj+adr0DYOXV1p2Tc9Lbc6GzpJROVqMzepbTVTdHJYLqJGWjFfPXBEDdaAWCExXX1J2XOG0n+fYxOsyDrc6LnVjHms8rP75p3mdixKMO7l1WffmxyWdTAC0R+Bo7X+bldw4x/gyJuOkYQyN601ZynID2/kGZNb7XEP1ae6qZ6ttgAFowgld7tW0fECTisz3L5W8IThEAdEi6dyAEROSxNg1UaYe/X2AKjH16W1bGGmo/LwagOuzir0uCJ6p0mHMChDzBxudM0kHAfYcyXATMBPY8y9nTvtUsqFdkUgwAvUN6CF5vtntQ/zQIf8/xva3zNHe4EPsZvrw0V/1UKuUaUaSs0KgoAE0qEvZHa1Ys9dSOFgdQ5Wq+6hJcFWmVjdlz1YO5Za6dW2L1ap8XB0CHh4awLeKz71sBoI4a6cpIG2Ut++Jpp+nPVgGo5gROpCt8o6sjJYhb2C+wkjpXljM13zoAjZTEFVLszQuROLw4Qb5fls73m5zdSgC1o9XcwJ9+8iBNfJbE8kOd5YgiIGC01QCaflf/EoFnSJ2vRVbCHyPaEex5/0IgV1hp+dEAaEzUwf85Z32nLBVWaucApEoZ2TkAI2Gl1ToAqVJGdg7ASFhptQ5AqpSRnQMwElZarQOQKmVk5wCMhJVW6wCkShnZOQAjYaXVOgCpUkZ2gwOI/ULFqJ/iaoc+S3IALTQOQByrNoYOwEZXca0OQCyVjaEDsNFVXKsDEEtlY+gAbHQV1/roAYiVeCKGg+8Dnoiu4m46ALFUNoYOwEZXca0OQCyVjaEDsNFVXKsDEEtlY+gAbHQV1+oAxFLZGDoAG13FtToAsVQ2hg7ARldxrf8BCGFHjm6cwn8AAAAASUVORK5CYII=;fontSize=8;spacingTop=-8;" vertex="1" parent="1">
                    <mxGeometry x="569" y="-18" width="20" height="20" as="geometry"/>
                </mxCell>
                <mxCell id="179" value="Seminar" style="shape=image;imageAspect=0;aspect=fixed;verticalLabelPosition=bottom;verticalAlign=top;strokeColor=#000000;image=data:image/png,iVBORw0KGgoAAAANSUhEUgAAAGAAAABgCAYAAADimHc4AAAEj0lEQVR4Xu2cjVEbMRCFMTRAByEVBCqIAw3QQaCChEpCKgA6oAEYU0GcCkIJNGA7TxnfDOPY3l1pdXs/72Y8A9ytVnrfriRLOiYHvEIVmIR6p/MDAggOAgIggGAFgt0zAwggWIFg98wAAghWINg9M4AAghUIds8MIIBgBYLdMwMIIFiBYPfMgL4BmE6np4eHh19R78vJZHISXH8X96vV6hUFPS6Xy4fZbDZ3KVRZiCkDzs/Pf0D078qye/kYYNw+Pz/ftFV5NYCLi4tfqNRpWxUL9jN7enr60kYdVAAQ+beI/G9tVKgrPpAJP5EJ1bNdBJD6/KOjoxT9o7sWi8VHjAlpfKh2iQDGGP2N2m1kgQbAn6HMdjLCeI6x4CzDTm0iAsDgu1KXNsAHAUDUqKTZYuESgNoVLGmcxja6fQQgZHjtACOAigAwgbnCVPZ+XyYSQCUASXxMXu6kDCKACgAa8VPkE4AwEnsPwu/FJwDFNMgTwKb4BNAigG3i9xLAtv2Gmuv1HhmwS/zeAdDsN3iv15cC2Cd+rwAY9xvc1utLAEji9wZAzoqr10plLgCN+L0AULLf4LFenwNAK34vAOREv+d6vRWARfy+ACjZbyher7cAsIrfCwCSANJUXvqqL9lL/pvyc8QnAEl93NcAyBW/FwDQuFesGn5QaPXfI5gJ/cZyb9FRGQkAfFynVc2c+vUFQPaRF4+pqAQgV/jGTuoiw5ejuz4NHTyA1MCcqahH9Cffo8+AJsIAYY6+9pMm4jz6/sYPAbxTXJMJXpFPADtCfb0cfYXb0yYjUsTj9xmOj996HxVkBmj6nIrPEEBFcTVFE4BGpYrPEEBFcTVFjx4ABt1jDLaf8TlNH4h2jEH3ZPNEdtoXxt9ecf8NP8/XnxcMym8aoXc9M1oAaPi/F/3WnxINH2H8iK/8DzmFjA4AGnyJ6E0v+53kCLbLZp0hNwCRgKgvCcBgFuNSV4PXW5PwaY5f7YJg9/i+cKPtmiQAaTFtEMvRxlMPpYDUO2UaAKkyuRA6sRqKyt/VjvxNYikTsFdwLZHUAsiFEA6gZLlZEk+6j1MTZ9Kb7xYAORDCAaCB96h4mvFEXA8QYO+YYwVghdAFAGFv2KMbekE3NN1HPgeABUIXAIS+ZSkJkAtAC0HyX31LUmpg7X5JEkCqn2QvzY4kewJweEVpMMfTa2fDtvJLM6ApczAvaLQNwQvArjEhvAtqW1CrP08A2yAQgEDEG8AmBAIIAPAeAgEEAWgg8F8VBALQjEfVvwdoKhH5TI0xwNKeYgAWZ318VurDS9skAig5v19auWh7zzOou9qiAZB9fj9awFL/3udQt9VHBBC5oVIqYKm9x2uwUh1EAOvp1OiyoI3oT9qqAKwhqM/vS9S7fr+Nvr/RQA1gLJnQVuRnAUhG287vdz2ipfrVfP9A8m3KAKkw3rcrQAB2zVwtCMBVTnthBGDXzNWCAFzltBdGAHbNXC0IwFVOe2EEYNfM1YIAXOW0F0YAds1cLQjAVU57YQRg18zVggBc5bQXRgB2zVwtCMBVTnthBGDXzNXiL+sNXY5GXp4mAAAAAElFTkSuQmCC;fontSize=8;spacingTop=-8;" vertex="1" parent="1">
                    <mxGeometry x="614" y="-18.5" width="20" height="20" as="geometry"/>
                </mxCell>
                <mxCell id="180" value="Kuliah" style="shape=image;imageAspect=0;aspect=fixed;verticalLabelPosition=bottom;verticalAlign=top;strokeColor=#000000;image=data:image/png,iVBORw0KGgoAAAANSUhEUgAAAGAAAABgCAYAAADimHc4AAAEO0lEQVR4Xu2d63UaMRBGeTTgVBC7gjgdgGnAriCkAjuVmFQQ3EEKALypIE4FoQRSAJBPOd4cZQPsjKRBjx1+2eeI0epezUjsA/o9fUUl0I/au3beUwGRJ4EKUAGRCRC7H41GF4PB4L7f79/iLdfW217w93y73T5VVbUhhvvbTDOAQOzm5maKZo+Af3Gs+X6/X+92uztIMELILxXQgsrAB/gvVKIQ8XG1Ws2p7VXACVJc+HUojgQVcESAK3yuBBVwQIAvfBMSWbDBmjBuWxNUQENACPhWFrRKUAGWgJDwqRK8BWB/fI398Qd0eIvdwiV19T9Du1/Ym4/aSkB9HBLwGxLe41jWzXF7CcBBm73xwxlgcrtIBr514NVyuRwHEzCZTL4jmP2JkAtJqn2K8Oux3kHCV3vgThmAmT/DzL+XIugRN2X4ZlhPEDD1EmBq/nA4NLM/tVfq8M3WdI1PyVdeAhKd/cnDr6EjA/6pOuwSBAE/dbfjnvzeArD47t27D/7ObGa+GTlK0DeUoJFXCWoT0DQcHLljQMl9PvWQIOATBMw6JyAF+IBusvWyedGGvQbklgGJwO9h3RwvFovK+4NYTgI48FEefgCSuZplTqsEfZ26PlBsBnDh49SxOW+0wQSbh5TQdnGmSAGu8OtpH0pCG3zTX3ECfOHXEjhxDtUrCvziBHCgmZpfl51jBZ8Tz45BhV+UAA4sCnwrEx6wOD9SV2UO/GIESME3N2PhxOMzQJFOu3PhFyEgZ/jZC8gdftYCSoCfrYBS4GcpoCT42QkoDX5WAkqEn42AUuFnIaBk+MkLKB1+0gJyhG+OmfN0TLICcoVvHmXi3pSQ3PWAnOGbGZ29gLZrzvVpYc4pZcmzms0J0wkBqcLvRAakDL8TAnBz0xvKE+nnLDv21bLiSxBlgLHgdyID2gRIwjeA2zYJbcfXvLac3DbUZ4DS8FXAiX32OeCrgCMCzgVfBVBvzjnRzuXWETucT4k8dFjZrQE+DnzhawZ40A8BXwU4CggFXwU4CAgJXwUwBYSGrwIYAiTgqwCiACn4nRBAZBytWfGfA6KRJXasAoigpJqpACmyxLgqgAhKqpkKkCJLjKsCiKCkmqkAKbLEuCqACEqqmQqQIkuMqwKIoKSaqQApssS4KoAISqqZCpAiS4yrAoigpJqpACmyxLjJCyCOo9hm4veG4omQNZ6FelssQY+BmWcX8JAe6buF6m7YN2Yl+uXdHtjCvRUCPkMA6wct2AIS/vr6cCQdI+HhkatDP1NyKhxbgAmmWfA/UpfZb6I4CXiV8IK14J3jZCnqbS6133kNsMlpJvz5Snp23bcZOmdAHeT1Z6ym+H/UlYwwMx7jrfC9ozNuzW+mvreAompJhMGogAjQg5agyMefffeaAZEVqgAVEJlA5O41A1RAZAKRu9cMUAGRCUTuXjNABUQmELn73yrc5Z3k6dfYAAAAAElFTkSuQmCC;fontSize=7;spacingTop=-8;" vertex="1" parent="1">
                    <mxGeometry x="660" y="-17.5" width="20" height="20" as="geometry"/>
                </mxCell>
                <mxCell id="181" value="Acara" style="shape=image;imageAspect=0;aspect=fixed;verticalLabelPosition=bottom;verticalAlign=top;strokeColor=#000000;image=data:image/png,iVBORw0KGgoAAAANSUhEUgAAAGAAAABgCAYAAADimHc4AAAGi0lEQVR4Xu1d7XEbNxAVJRWgDqJUYLoCk5L+W64gcgWRKzBVgakKTFVg6r8+mArMVGClgsj/9ZH3NDgPdbzDx2FxADN7MzcZmcACeG93sQAWl8GWPlkRGGRtXRvfUgIyK4ESoARkRiBz82oBSkBmBDI3rxagBGRGIHPzagFKQGYEMjevFlA6AaPRaLi9vf0H+nk8GAz2M/d3I5p/fn6+Q0fnT09PF4vFYmnrtNUCDg4OvgD0040YdaGdBBnTm5ubT23dayXg8PDwOyoNCx3XpnVrcX19PW7qdCMB0PwpNP/PTRtlyf2FJZzDEta8yRoB9Pk7OzvUfn2EEXh8fPwdcwLnh1/PGgGq/cKor4hrsoImAn5otJOMhCXmgrdWC8Dk+5yseRW8BQJeKf2aBbgIqAtQTF8jEIqfEiCsQUqAMKCh4pSAUMSEy28MAVhv7CHaeoe32mPaW1l5c//knnsqeOd4/0L8fC+MVRJxxRMA4PexufcZwJ+EIAASZtjcOqsvZEJk9FG2aAKwyCPwkxggQMQES/qzGBkp6xZJAN0NtjduV1xMLAZLLOvHJbql4ggw5wnfpFfXnB/gkj649ttjmQ6tXxQB1Hz4++/S4FegGBLelmQJRRHQ05nC2v5KqNZKli+GAEy4E2j+Z8nBtcmCJZxhYo6a3KX6WQQBDDUx6f7wGRTA+xvlGGLOqxDThKrH+PcTkPjGJQcy7lGfrujOVTb170UQgE7MMFAe5FsfAPcJmju1FYIlnYKELy5Z+P0CG4UnHuWSFslOgAk5/3WNEmEkNdaaMVDJODo6GoEshrHWp4Sd2uwEoAN0Hd9sSPlofr2+pyV8AAlzF1Epfy+BAKv7oc+H2+mUbQES7uCOfrMAmN0NZScAIC24ydYGUhftr2S5rICbdiB3lFLDXbJLIMB6ptyUGeAaVPW7R8ZG9jVBdgJCO+ALflUutfzQ/tTLh/ZP/EgytAOhA04tP7Q/xRHgmihTuqCYCT4W+K4WKm4BOgnb03qSp6V4rII7T5Qg15U0pmGoLsQyW0CKrQiP8PPFBetWhJmJPNxQNWedArRz2wQIWUyTt27YmfrZ3Q/7ERqliU/C7ETIdjSKc0NuhuiIqScvm3NG498hquFO6L5HhPIT9Ye6Hb2ClB7INKtN8ihotVmQsPQ5UPHQ8NYiJcT+q50rwgVVHTKH8iTBtoPZGX+A/w9Owuh6ismaK4qAyp8jM2IuTYIB/9j3UKczy4EVowkIbM+ruLEEblM7z3d9BNLtQPNHJWl+1e8iCag6JzAx/zT3bic+ROUoUzQBKyEqAXQe2tcAvECoOSkh1LQRWzwBtYiB58fH0GrG+kxXf3FRJlXlHn/f4c957nPeEEvaKAJCBrYpZZWAzEwpAUpAZgQyN1+sBZg7YW+wKBty0sUEW88NGtWwW6z+jTpcUfNOwJKTdIlrAPa3GALG4/F7goyXaYX8Ly/hiT1MyIVMkrEgObe3t5diwiMEZSPAHMS8Z1hp3ohhdK7KtMQ51guXuSykVwIM6FxQneDtlG7YGWp3xeqcgZ8N622zrhcCqqum1HRp1+LGNawEXRWtoq8rrkkJMGnivPVSnzDDUMlXmruy51dXV68meMnuJCGAwEODvnoeD0qOJ4ksXu5DNPYxBRHiBPyfv5xodlZbv2jYhX1RAgA+tZ4TrMjDQxQTOjKm5/trcqxrI62uahT19kwoyzUEQ1qxEzbImyGl/aPIACFEjACBvftqV3MGc18+PDwspaIRRl+7u7tDHkcyAos96AEJYrcsRQjwvZPVojWXGBCjDuDdz61FE5WNQATXIFyLBD8hd9ZswkUIgBBeiPOOdOhaUH4K0GdSWh6MoKlgjj/pNplTFOKqWj+uGtKXaAJ80wDZKV4JwiCnpR6YME/VJHe1XplaBVfCCqIJ8PluKIGHtp+WlpHQpqnmgyH8GrCVCIyr8eu2vVqAR35/51uOIQNJUdaVKEbFir3kF20BLgHQonGKBUwKwOsyfYKL2AxrF369pib2AWpoG6EApZafJDs6tNN9ls9JQFMeqxJQYz+lC2qa5JWAHgnw+ny9y0T7dBc52kplAW0hbrAF5AClzzZTENDk+6sxKQGJXZBrcacEJCDA5LYusFswdW1IKgHCBIS6SyVACQjVmbTlYyfh0N6pBZRmAaEMavk4BPT/phqHX3RtJSAawjgBSkAcftG1lYBoCOMEKAFx+EXXVgKiIYwToATE4Rdd+z8gf7GdSFZnVwAAAABJRU5ErkJggg==;fontSize=7;spacingTop=-8;" vertex="1" parent="1">
                    <mxGeometry x="702" y="-17" width="20" height="20" as="geometry"/>
                </mxCell>
                <mxCell id="182" value="&lt;font style=&quot;font-size: 7px;&quot;&gt;Masukan kata&lt;/font&gt;" style="html=1;shadow=0;dashed=0;shape=mxgraph.bootstrap.rrect;rSize=5;strokeColor=#999999;fillColor=#ffffff;fontColor=#777777;whiteSpace=wrap;align=left;verticalAlign=middle;fontStyle=0;fontSize=7;spacing=15;spacingTop=0;" vertex="1" parent="1">
                    <mxGeometry x="624" y="-299" width="73.33" height="20" as="geometry"/>
                </mxCell>
                <mxCell id="183" value="Cari" style="html=1;shadow=0;dashed=0;shape=mxgraph.bootstrap.rrect;rSize=5;strokeColor=none;fillColor=#0085FC;fontColor=#ffffff;whiteSpace=wrap;align=center;verticalAlign=middle;fontStyle=0;fontSize=9;spacing=14;" vertex="1" parent="1">
                    <mxGeometry x="702" y="-299" width="30" height="20" as="geometry"/>
                </mxCell>
                <mxCell id="184" value="Objek Oriented Analisys and Design" style="rounded=1;whiteSpace=wrap;html=1;fontSize=9;arcSize=3;fontStyle=1;align=left;spacingTop=3;spacingLeft=5;" vertex="1" parent="1">
                    <mxGeometry x="557" y="-250" width="175" height="55" as="geometry"/>
                </mxCell>
                <mxCell id="185" value="Senin, 6 Mei 2024" style="text;html=1;strokeColor=none;fillColor=none;align=center;verticalAlign=middle;whiteSpace=wrap;rounded=0;fontSize=8;fontStyle=0" vertex="1" parent="1">
                    <mxGeometry x="557" y="-249" width="78" height="18" as="geometry"/>
                </mxCell>
                <mxCell id="186" value="Logo" style="text;html=1;strokeColor=none;fillColor=none;align=center;verticalAlign=middle;whiteSpace=wrap;rounded=0;fontSize=13;" vertex="1" parent="1">
                    <mxGeometry x="549" y="-304" width="60" height="30" as="geometry"/>
                </mxCell>
                <mxCell id="188" value="&lt;font style=&quot;font-size: 6px;&quot;&gt;222PB&lt;/font&gt;" style="html=1;shadow=0;dashed=0;shape=mxgraph.bootstrap.rrect;rSize=5;strokeColor=none;strokeWidth=1;fillColor=#6C767D;fontColor=#ffffff;whiteSpace=wrap;align=left;verticalAlign=middle;fontStyle=0;fontSize=4;spacingLeft=3;" vertex="1" parent="1">
                    <mxGeometry x="557" y="-274" width="44" height="16" as="geometry"/>
                </mxCell>
                <mxCell id="189" value="" style="shape=triangle;direction=south;fillColor=#ffffff;strokeColor=none;perimeter=none;fontSize=8;" vertex="1" parent="188">
                    <mxGeometry x="1" y="0.5" width="8" height="4" relative="1" as="geometry">
                        <mxPoint x="-15" y="-2" as="offset"/>
                    </mxGeometry>
                </mxCell>
                <mxCell id="197" value="&lt;span style=&quot;&quot;&gt;close book&lt;/span&gt;" style="text;html=1;align=center;verticalAlign=middle;resizable=0;points=[];autosize=1;strokeColor=none;fillColor=none;fontSize=8;fontStyle=1" vertex="1" parent="1">
                    <mxGeometry x="668" y="-249" width="70" height="20" as="geometry"/>
                </mxCell>
                <mxCell id="202" value="&lt;span style=&quot;&quot;&gt;222PB&lt;/span&gt;" style="text;html=1;align=center;verticalAlign=middle;resizable=0;points=[];autosize=1;strokeColor=none;fillColor=none;fontSize=8;" vertex="1" parent="1">
                    <mxGeometry x="690" y="-213.5" width="50" height="20" as="geometry"/>
                </mxCell>
                <mxCell id="203" value="Jaringan Komputer 2" style="rounded=1;whiteSpace=wrap;html=1;fontSize=9;arcSize=3;fontStyle=1;align=left;spacingTop=3;spacingLeft=5;" vertex="1" parent="1">
                    <mxGeometry x="557" y="-189" width="175" height="55" as="geometry"/>
                </mxCell>
                <mxCell id="204" value="Senin, 6 Mei 2024" style="text;html=1;strokeColor=none;fillColor=none;align=center;verticalAlign=middle;whiteSpace=wrap;rounded=0;fontSize=8;fontStyle=0" vertex="1" parent="1">
                    <mxGeometry x="557" y="-188" width="78" height="18" as="geometry"/>
                </mxCell>
                <mxCell id="205" value="&lt;span style=&quot;&quot;&gt;take home&lt;/span&gt;" style="text;html=1;align=center;verticalAlign=middle;resizable=0;points=[];autosize=1;strokeColor=none;fillColor=none;fontSize=8;fontStyle=1" vertex="1" parent="1">
                    <mxGeometry x="673" y="-188" width="60" height="20" as="geometry"/>
                </mxCell>
                <mxCell id="206" value="&lt;span style=&quot;&quot;&gt;222PB&lt;/span&gt;" style="text;html=1;align=center;verticalAlign=middle;resizable=0;points=[];autosize=1;strokeColor=none;fillColor=none;fontSize=8;" vertex="1" parent="1">
                    <mxGeometry x="690" y="-152.5" width="50" height="20" as="geometry"/>
                </mxCell>
                <mxCell id="211" value="B201" style="rounded=1;whiteSpace=wrap;html=1;fontSize=8;arcSize=6;align=center;spacingLeft=0;" vertex="1" parent="1">
                    <mxGeometry x="562" y="-211.5" width="25" height="12" as="geometry"/>
                </mxCell>
                <mxCell id="212" value="-" style="rounded=1;whiteSpace=wrap;html=1;fontSize=8;arcSize=6;align=center;spacingLeft=0;" vertex="1" parent="1">
                    <mxGeometry x="561" y="-150.5" width="25" height="12" as="geometry"/>
                </mxCell>
            </root>
        </mxGraphModel>
    </diagram>
</mxfile>